<?xml version="1.0" standalone="no"?>
<!DOCTYPE svg PUBLIC "-//W3C//DTD SVG 20010904//EN"
 "http://www.w3.org/TR/2001/REC-SVG-20010904/DTD/svg10.dtd">
<svg version="1.0" xmlns="http://www.w3.org/2000/svg"
 width="870.000000pt" height="720.000000pt" viewBox="0 0 870.000000 720.000000"
 preserveAspectRatio="xMidYMid meet">

<g transform="translate(0.000000,720.000000) scale(0.100000,-0.100000)"
fill="#000000" stroke="none">
<path d="M2825 7190 c-3 -5 -5 -117 -3 -247 l2 -238 -33 -85 c-18 -47 -77
-191 -131 -320 -54 -129 -164 -399 -245 -600 -324 -800 -299 -745 -328 -748
-22 -3 -41 12 -115 90 -94 99 -398 427 -571 615 -97 106 -133 131 -144 101 -2
-7 7 -28 21 -47 l26 -35 -153 -615 c-85 -339 -176 -706 -203 -816 -27 -110
-69 -272 -93 -361 -25 -88 -78 -291 -119 -450 -118 -460 -257 -980 -336 -1254
-101 -351 -163 -565 -184 -635 l-24 -80 -51 -3 c-53 -3 -62 -14 -38 -45 9 -12
46 -21 136 -32 69 -9 129 -19 135 -22 6 -4 44 -8 86 -9 41 -2 298 -28 570 -59
272 -30 500 -55 507 -55 7 0 13 -7 13 -15 0 -11 -13 -15 -53 -15 -54 0 -480
47 -677 75 -58 8 -143 16 -190 17 -83 3 -85 2 -88 -21 -2 -14 5 -32 18 -45 11
-11 27 -30 35 -41 15 -20 15 -20 21 2 8 27 1 27 144 7 92 -12 119 -19 133 -36
9 -11 17 -27 17 -35 0 -18 -57 -13 -209 18 -51 10 -101 19 -111 19 -24 0 -32
-27 -21 -68 11 -38 89 -149 111 -156 23 -8 236 -26 312 -26 62 0 78 -5 208
-67 77 -36 140 -69 140 -73 0 -4 -18 -15 -41 -25 -23 -11 -52 -34 -66 -52
l-25 -33 -93 0 c-50 0 -107 5 -124 11 -24 9 -35 9 -44 0 -12 -12 -57 -15 -57
-3 0 4 -26 7 -57 7 -32 0 -85 2 -118 5 -33 2 -87 -2 -119 -9 -48 -10 -60 -10
-67 1 -7 10 -63 13 -269 13 -169 0 -259 -4 -257 -10 2 -6 94 -12 233 -16 126
-4 248 -10 270 -14 24 -4 72 -2 112 5 57 9 95 8 211 -5 78 -9 145 -14 150 -10
5 3 35 -2 67 -10 32 -8 75 -15 96 -15 21 0 38 -4 38 -10 0 -6 -27 -10 -60 -10
-33 0 -60 -4 -60 -10 0 -11 76 -16 198 -11 57 2 87 -1 98 -10 25 -20 185 -24
289 -6 96 17 158 12 214 -18 35 -17 132 -20 148 -4 8 8 27 7 69 -1 41 -9 106
-11 217 -6 95 4 170 3 190 -3 53 -16 276 -41 361 -41 43 0 124 7 180 16 100
16 161 15 331 -5 44 -5 78 -4 93 2 16 8 38 7 75 -3 29 -7 93 -17 142 -21 50
-4 122 -17 160 -29 67 -20 137 -25 275 -19 25 1 103 -4 174 -11 123 -13 129
-13 142 5 8 10 14 22 14 27 0 4 -39 8 -87 8 -49 0 -106 5 -128 10 -50 11 -170
13 -252 4 -89 -9 -193 3 -193 23 0 14 15 15 108 11 69 -3 124 -1 156 7 43 11
63 10 165 -11 164 -32 326 -33 372 0 15 10 29 12 52 5 50 -15 268 -15 295 -1
14 8 28 10 40 4 9 -6 73 -15 141 -22 115 -12 126 -12 157 5 31 17 40 17 104 5
84 -16 225 -18 370 -6 88 7 115 6 164 -8 43 -13 93 -17 190 -16 72 1 169 -2
216 -6 50 -4 121 -2 171 5 71 9 110 9 217 -5 72 -8 141 -14 154 -12 13 2 -4 7
-37 11 -33 4 -107 14 -165 22 -78 11 -122 12 -170 5 -100 -15 -176 -13 -195 6
-13 14 -24 14 -79 5 -34 -6 -103 -10 -152 -9 -68 1 -76 3 -31 5 l58 4 39 61
c49 75 158 184 315 313 207 170 377 347 360 375 -9 14 12 17 355 45 l315 26
21 -27 c26 -32 48 -23 42 17 -4 26 7 39 111 131 64 57 271 245 460 418 441
403 430 394 523 441 79 40 100 61 80 81 -12 12 -46 0 -195 -69 -91 -43 -99
-45 -125 -32 -32 17 -695 676 -883 879 -73 80 -199 219 -279 309 -80 89 -174
195 -209 234 -140 158 -368 443 -649 812 l-114 150 55 10 c56 10 56 10 39 32
-14 18 -29 23 -81 25 -61 3 -64 4 -92 43 -28 39 -29 43 -38 230 -6 105 -17
227 -26 272 -28 148 -84 294 -141 370 -13 17 -24 34 -24 37 0 3 29 6 64 6 36
0 68 5 71 10 4 6 -27 10 -84 10 -62 0 -91 4 -91 11 0 9 26 10 94 5 58 -4 97
-3 101 3 9 16 -44 20 -330 28 l-269 8 -34 58 c-19 32 -32 60 -29 64 9 8 239
-45 352 -83 55 -18 102 -30 105 -28 11 12 11 234 0 318 -13 97 -41 198 -70
256 -10 19 -21 45 -24 58 -7 21 -5 22 43 22 48 0 50 1 47 28 -3 25 -7 27 -52
30 -27 1 -76 6 -109 12 -33 5 -195 18 -360 30 -165 11 -310 23 -322 25 -41 9
-62 63 -74 186 -11 115 -18 137 -38 124 -8 -4 -11 -53 -10 -147 0 -77 -2 -142
-5 -146 -6 -5 -262 11 -864 54 -118 9 -220 13 -228 10 -23 -9 -16 -36 12 -46
14 -6 46 -10 72 -10 57 0 64 -5 90 -55 47 -92 52 -263 12 -420 -21 -84 -83
-210 -131 -267 -30 -38 -31 -38 -107 -39 -42 0 -94 -3 -115 -7 l-39 -7 22 -27
c21 -27 25 -28 110 -28 l88 0 21 -33 c43 -70 93 -308 64 -307 -5 1 -47 49 -94
108 -48 59 -167 206 -266 327 -231 285 -375 470 -443 572 -30 45 -95 134 -144
198 -68 88 -89 123 -89 148 -1 17 0 93 1 168 2 131 3 137 24 142 11 3 35 -1
52 -10 34 -18 119 -21 219 -8 45 6 73 3 117 -10 57 -17 90 -16 90 5 0 5 -5 10
-11 10 -7 0 -50 19 -97 41 -78 39 -89 41 -143 35 -50 -5 -71 -1 -139 24 -45
17 -90 30 -100 30 -10 0 -25 7 -34 15 -17 18 -23 19 -31 5z m160 -75 c52 -20
82 -25 138 -23 50 1 83 -3 107 -14 l35 -17 -50 1 c-27 0 -86 -3 -130 -7 -66
-6 -87 -5 -113 9 -17 9 -45 16 -62 16 -27 0 -30 3 -30 30 0 38 15 39 105 5z
m-126 -527 l-2 -63 -7 55 c-6 51 -5 70 6 70 2 0 3 -28 3 -62z m103 -30 c35
-46 75 -98 88 -117 16 -24 47 -130 106 -370 101 -410 151 -658 201 -986 36
-235 38 -263 37 -470 -1 -152 -6 -242 -16 -293 -15 -70 -11 -95 10 -69 5 6 13
28 17 47 14 74 11 71 78 66 80 -7 174 -24 214 -41 25 -11 33 -21 39 -51 15
-78 -18 -424 -45 -472 -10 -18 -4 -26 -303 393 -484 679 -482 676 -480 707 1
16 0 33 -2 37 -3 4 -8 383 -11 842 -4 459 -8 840 -10 847 -11 31 19 5 77 -70z
m967 46 c2 -2 -10 -4 -27 -4 -17 0 -34 4 -37 10 -5 9 53 3 64 -6z m106 -10
c19 -20 91 -29 395 -49 129 -9 280 -20 335 -25 55 -5 133 -11 174 -12 73 -3
74 -4 96 -38 12 -19 82 -136 155 -260 73 -124 162 -272 196 -330 l63 -105 -62
-3 c-34 -2 -135 -1 -224 3 l-163 7 -2 54 c-1 30 -2 62 -2 72 -1 18 27 19 227
6 55 -4 87 -2 87 4 0 16 -37 22 -212 33 -234 14 -646 -5 -785 -36 -13 -3 -23
-1 -23 5 0 6 22 45 48 88 66 105 64 102 55 102 -4 0 -30 -37 -57 -82 -27 -46
-55 -92 -62 -104 -8 -14 -34 -25 -90 -37 -43 -9 -79 -15 -81 -13 -2 2 26 61
63 130 36 70 64 129 62 132 -5 4 -112 -188 -138 -247 -10 -21 -24 -28 -83 -42
-40 -9 -83 -20 -97 -24 -25 -7 -25 -6 -7 18 39 55 110 206 127 273 42 167 33
343 -24 441 -14 23 -22 45 -19 49 11 11 31 7 48 -10z m-1216 -76 c-1 -73 -28
-189 -216 -943 -117 -473 -218 -874 -224 -891 -7 -22 -15 -30 -29 -29 -12 1
-66 51 -129 119 l-108 118 77 186 c43 103 107 261 143 352 65 161 212 524 377
925 45 110 86 210 91 223 15 38 19 25 18 -60z m1339 75 c-10 -2 -26 -2 -35 0
-10 3 -2 5 17 5 19 0 27 -2 18 -5z m312 -18 c107 -8 260 -19 339 -25 80 -6
152 -15 160 -20 12 -7 8 -8 -14 -5 -42 6 -249 22 -525 41 -129 8 -237 17 -239
20 -8 8 81 4 279 -11z m633 -52 c-13 -2 -33 -2 -45 0 -13 2 -3 4 22 4 25 0 35
-2 23 -4z m207 -38 c107 -9 230 -19 273 -22 53 -4 81 -2 86 5 11 18 69 -35 95
-86 35 -71 66 -168 82 -257 13 -74 20 -306 9 -316 -2 -3 -56 12 -118 33 -63
21 -165 48 -228 60 l-115 22 -74 120 c-174 286 -270 449 -270 461 0 3 15 3 33
0 17 -3 120 -12 227 -20z m488 -22 c-10 -2 -26 -2 -35 0 -10 3 -2 5 17 5 19 0
27 -2 18 -5z m-2926 -548 c4 -868 4 -928 -7 -932 -7 -2 -9 111 -7 329 1 183
-1 509 -6 723 -4 215 -6 396 -4 403 18 52 22 -50 24 -523z m277 354 c15 -69
13 -106 -4 -54 -6 22 -15 57 -19 78 -11 58 10 37 23 -24z m-329 -572 l0 -623
-28 -16 c-32 -19 -52 -71 -44 -114 2 -16 6 -191 7 -389 l3 -360 -41 45 c-22
25 -101 109 -175 188 -166 176 -163 169 -115 350 18 70 58 228 88 352 83 344
298 1190 302 1190 1 0 3 -280 3 -623z m416 486 c31 -43 84 -110 116 -150 l58
-71 2 -139 2 -138 3 123 c2 67 7 122 11 122 8 0 459 -547 475 -576 9 -15 -21
-140 -59 -246 -52 -144 -204 -416 -212 -377 -1 8 4 43 12 77 8 34 10 62 6 62
-9 0 -10 -6 -31 -118 -8 -44 -18 -66 -31 -73 -38 -20 -40 3 -14 152 27 147 30
177 20 167 -3 -4 -18 -77 -32 -165 -25 -146 -29 -158 -50 -161 -15 -2 -22 2
-22 12 0 14 36 321 55 471 3 25 2 34 -4 25 -7 -13 -39 -250 -57 -430 -5 -45
-13 -71 -26 -84 -11 -10 -21 -16 -22 -15 -2 2 -8 63 -15 134 -23 248 -93 669
-160 964 -23 100 -32 170 -36 273 -3 77 -10 149 -15 161 -7 18 -9 15 -8 -18 0
-22 3 -79 6 -127 4 -47 4 -84 1 -82 -12 7 -22 77 -24 159 -1 44 -5 95 -9 113
-4 17 -6 32 -3 32 3 0 31 -35 63 -77z m1635 -258 c3 -2 1 -37 -5 -76 l-9 -72
-246 6 c-135 4 -343 7 -461 7 -131 0 -210 4 -205 9 11 11 348 83 470 101 66
10 204 19 416 28 20 1 38 0 40 -3z m46 -75 c-2 -59 -5 -70 -19 -70 -21 0 -24
52 -7 113 15 57 29 35 26 -43z m-1140 -87 c-20 -2 -52 -2 -70 0 -17 2 0 4 38
4 39 0 53 -2 32 -4z m989 -3 l182 0 41 -87 c23 -49 78 -152 122 -229 137 -243
340 -698 324 -725 -4 -5 -66 -9 -140 -9 -150 0 -140 -6 -151 91 l-7 62 112 -6
c88 -4 111 -3 111 7 0 18 -194 30 -343 22 -233 -13 -406 -27 -529 -42 -69 -8
-132 -14 -140 -13 -7 1 -20 0 -28 -3 -8 -4 -87 -18 -175 -33 -88 -15 -222 -40
-298 -55 -120 -24 -137 -25 -132 -11 4 10 -1 8 -18 -7 -48 -46 -45 -19 9 63
92 141 172 327 219 508 32 122 12 294 -46 410 l-19 37 82 0 c46 0 283 -5 528
-10 245 -5 448 -6 453 -1 12 12 -134 21 -383 22 -124 1 -328 5 -455 9 -193 7
-171 7 135 4 201 -2 447 -4 546 -4z m761 -105 c83 -120 436 -835 421 -850 -2
-2 -57 7 -122 20 -65 13 -175 31 -244 40 -70 9 -127 17 -128 18 -15 22 -133
231 -199 352 -48 88 -127 233 -176 321 -49 89 -92 169 -95 179 -6 15 11 16
237 13 l244 -3 62 -90z m291 79 c28 -4 52 -11 52 -16 0 -5 18 -32 41 -60 53
-67 82 -127 119 -240 44 -134 59 -229 66 -406 l6 -157 -39 54 c-21 30 -78 111
-127 180 -49 69 -125 182 -169 251 -44 69 -119 184 -168 257 -49 73 -89 135
-89 138 0 7 244 6 308 -1z m-4434 -143 l47 -48 -14 -36 c-19 -44 -51 -186 -44
-193 6 -6 47 127 47 153 0 11 7 28 15 39 14 18 16 18 42 -13 16 -17 87 -95
158 -173 72 -79 129 -150 128 -159 -1 -9 -5 -32 -7 -51 l-6 -35 17 38 c8 20
19 37 23 37 13 0 40 -49 31 -55 -13 -8 -64 -162 -58 -178 6 -16 32 42 52 116
8 31 19 57 24 57 5 0 159 -165 343 -367 184 -203 378 -414 431 -470 l97 -103
-6 -55 c-4 -32 -2 -72 5 -97 12 -41 5 -73 -124 -598 -208 -845 -435 -1774
-435 -1782 0 -5 -127 -8 -282 -8 -407 0 -714 -26 -1102 -91 -65 -11 -120 -18
-122 -17 -2 2 27 51 63 108 62 98 182 334 198 390 14 47 -6 12 -59 -102 -55
-120 -179 -338 -219 -384 -13 -15 -29 -25 -36 -23 -8 3 24 78 98 226 61 122
131 269 157 325 25 57 64 143 86 191 22 49 37 91 34 94 -3 3 -18 -23 -34 -58
-80 -177 -172 -375 -267 -569 -98 -202 -106 -215 -137 -223 -26 -7 -35 -5 -45
9 -17 23 -16 41 2 100 21 68 91 381 110 489 47 272 391 1637 498 1975 86 272
139 511 182 820 30 213 78 488 102 575 19 73 21 97 8 101 -19 7 -61 -196 -120
-586 -53 -355 -102 -569 -235 -1025 -16 -55 -45 -163 -65 -240 -20 -77 -70
-259 -112 -405 -101 -358 -245 -954 -282 -1177 -43 -250 -113 -530 -137 -548
-11 -7 -19 -22 -20 -32 -1 -10 -2 -31 -3 -48 -3 -54 -9 -58 -97 -46 -43 6 -82
15 -87 20 -5 5 10 69 37 153 48 151 180 630 291 1058 36 140 77 289 90 330 13
41 54 192 90 335 37 143 105 406 152 585 46 179 120 474 164 655 67 278 224
898 260 1028 5 20 13 37 17 37 4 0 29 -22 56 -49z m375 -350 c278 -300 306
-331 293 -331 -6 0 -32 24 -59 54 -26 30 -167 184 -312 342 -146 159 -272 298
-280 310 -28 36 115 -113 358 -375z m4187 -211 c337 -482 833 -1125 1070
-1385 60 -66 136 -151 169 -190 239 -278 794 -854 1034 -1074 56 -51 100 -95
98 -97 -2 -2 -40 12 -84 32 -138 59 -668 182 -963 223 -133 19 -418 41 -520
41 -94 0 -100 1 -100 21 0 11 -11 73 -24 137 -109 520 -338 1287 -553 1852
-45 118 -195 455 -270 604 -30 61 -51 107 -45 101 5 -5 90 -125 188 -265z
m-3135 -30 c5 0 9 -4 9 -10 0 -5 -9 -10 -20 -10 -13 0 -20 7 -20 18 0 25 14
38 18 18 2 -9 8 -16 13 -16z m2650 -182 c30 -51 58 -100 64 -109 5 -9 18 -32
29 -50 108 -194 798 -1233 890 -1341 29 -33 138 -464 167 -658 12 -86 30 -127
50 -120 51 16 390 2 425 -18 6 -4 71 -77 145 -162 73 -85 184 -213 247 -285
62 -71 109 -131 104 -133 -5 -1 -69 15 -143 36 -314 92 -870 192 -1061 192
-26 0 -48 2 -48 5 0 2 16 34 36 70 25 46 60 87 117 138 148 132 162 146 147
147 -8 0 -52 -32 -97 -71 -46 -39 -83 -68 -83 -66 0 2 11 30 25 62 14 32 24
63 22 69 -3 6 -8 2 -12 -9 -34 -97 -79 -166 -156 -239 -44 -43 -83 -76 -85
-73 -3 3 4 23 15 45 17 34 93 204 147 330 8 17 11 32 6 32 -4 0 -25 -42 -46
-92 -22 -51 -65 -148 -97 -215 l-58 -123 -69 0 -69 0 -10 113 -10 112 40 94
c61 147 135 356 141 398 4 21 -6 0 -22 -47 -36 -109 -154 -411 -159 -407 -2 2
-8 29 -14 60 -10 56 -9 60 44 199 63 164 71 189 91 277 20 85 4 65 -19 -24
-15 -60 -112 -342 -122 -354 -2 -2 -5 -2 -7 0 -8 7 -46 243 -46 281 0 18 18
88 40 153 37 109 80 269 80 297 0 26 -12 -4 -26 -63 -23 -103 -97 -338 -105
-334 -3 3 -9 24 -13 47 -21 132 -161 711 -245 1011 -75 266 -211 666 -306 900
-17 42 7 10 56 -75z m-2631 57 c0 -9 -9 -15 -25 -15 -16 0 -25 6 -25 15 0 9 9
15 25 15 16 0 25 -6 25 -15z m48 -4 c3 -8 -1 -12 -9 -9 -7 2 -15 10 -17 17 -3
8 1 12 9 9 7 -2 15 -10 17 -17z m-658 -127 c113 -124 133 -150 112 -143 -11 4
-242 256 -242 264 0 17 28 -9 130 -121z m2860 59 c6 -32 14 -66 16 -75 4 -14
-1 -18 -25 -18 l-31 0 0 75 c0 58 3 75 14 75 10 0 18 -20 26 -57z m47 1 c16
-68 15 -94 -1 -94 -12 0 -36 86 -36 133 0 36 25 10 37 -39z m-271 -21 c-8 -74
-11 -83 -32 -83 -10 0 -14 14 -14 56 0 62 13 94 37 94 14 0 15 -9 9 -67z m92
16 c-5 -45 -3 -52 16 -59 11 -5 15 -9 9 -9 -7 -1 -13 -8 -13 -16 0 -10 -10
-15 -32 -15 -55 0 -62 10 -53 76 9 73 9 74 47 74 l31 0 -5 -51z m55 31 c3 -11
1 -20 -4 -20 -5 0 -9 9 -9 20 0 11 2 20 4 20 2 0 6 -9 9 -20z m677 -6 c151
-22 283 -52 292 -66 22 -36 13 -38 -207 -38 l-215 0 -30 53 c-49 85 -57 82
160 51z m-884 -46 c-4 -35 -10 -66 -14 -69 -4 -4 -78 -9 -164 -12 l-157 -6
-40 51 c-23 28 -39 54 -36 57 2 4 71 13 152 20 81 7 153 14 158 16 6 2 32 4
59 4 l49 1 -7 -62z m-1798 -71 c63 -91 80 -123 86 -163 35 -255 99 -820 111
-983 12 -176 13 -206 0 -215 -7 -6 -39 -108 -70 -226 -52 -196 -75 -264 -75
-217 0 26 -66 615 -95 850 -14 110 -25 227 -25 259 0 53 -10 73 -25 49 -3 -5
8 -121 25 -258 16 -136 46 -394 65 -573 19 -179 39 -338 45 -354 8 -24 -1 -68
-50 -246 -33 -119 -63 -227 -68 -241 -12 -30 -18 170 -32 1029 -9 528 -9 646
2 659 9 11 15 69 20 182 9 202 9 161 2 379 -4 100 -4 182 -1 182 3 0 41 -51
85 -113z m-172 70 c2 -20 -2 -27 -14 -27 -15 -1 -15 -2 2 -15 15 -11 17 -17 7
-29 -8 -10 -9 -16 -1 -21 7 -4 7 -12 0 -26 -7 -13 -7 -19 0 -19 14 0 13 -27
-2 -33 -10 -4 -10 -8 1 -15 13 -9 13 -13 1 -27 -12 -14 -12 -18 0 -25 12 -7
12 -11 0 -25 -11 -13 -11 -18 -2 -24 15 -9 5 -41 -13 -41 -17 0 -27 100 -24
237 2 101 9 127 33 120 5 -2 10 -15 12 -30z m64 -153 c0 -136 -3 -175 -12
-171 -7 2 -13 15 -13 28 0 13 -3 29 -8 36 -4 6 -3 14 3 18 7 4 7 12 0 25 -7
13 -6 20 3 23 9 3 9 9 0 24 -8 15 -9 23 -1 31 8 8 8 15 -2 27 -10 12 -10 15 0
15 7 0 10 8 7 20 -3 11 0 23 5 27 7 4 4 11 -8 20 -15 11 -16 15 -5 22 10 7 10
10 1 16 -9 6 -9 9 1 16 7 4 17 5 21 3 4 -3 8 -84 8 -180z m1495 126 c21 -28
36 -53 34 -54 -2 -2 -159 -7 -349 -10 -199 -4 -337 -2 -325 3 11 4 72 18 135
30 166 32 432 79 452 80 9 1 33 -22 53 -49z m625 30 c0 -5 -4 -10 -10 -10 -5
0 -10 5 -10 10 0 6 5 10 10 10 6 0 10 -4 10 -10z m1023 -172 c76 -198 188
-512 256 -720 70 -214 70 -217 60 -275 -16 -88 -16 -88 -42 -56 -96 115 -716
1072 -717 1106 0 4 90 7 200 7 179 0 230 6 188 23 -8 4 -7 6 3 6 12 1 27 -25
52 -91z m230 85 c-7 -2 -21 -2 -30 0 -10 3 -4 5 12 5 17 0 24 -2 18 -5z
m-1246 -54 c27 -56 93 -248 133 -383 70 -243 170 -690 170 -764 0 -25 -11 -27
-285 -41 -370 -19 -1030 -103 -1384 -176 -93 -19 -172 -35 -175 -35 -3 0 0 11
6 25 6 14 15 25 19 25 5 0 26 26 48 58 44 65 146 252 137 252 -3 0 -33 -49
-66 -110 -63 -113 -90 -149 -45 -61 13 27 43 96 66 153 23 57 47 117 54 133 7
17 23 86 36 155 20 105 24 156 24 325 l0 200 -36 100 c-19 55 -39 107 -43 116
-6 14 31 16 376 22 211 4 492 7 624 7 240 0 304 4 304 21 0 5 -153 7 -347 5
l-348 -5 275 9 c151 5 307 11 345 12 39 2 75 3 80 3 6 -1 20 -21 32 -46z m401
44 c-21 -2 -57 -2 -80 0 -24 2 -7 4 37 4 44 0 63 -2 43 -4z m-366 -14 c3 -8
66 -12 208 -13 l205 -1 29 -80 c15 -44 53 -152 83 -240 84 -248 253 -879 238
-893 -2 -3 -57 1 -121 9 -83 10 -119 18 -125 29 -76 137 -345 723 -446 970
-97 238 -94 230 -84 230 5 0 11 -5 13 -11z m-1389 -100 l28 -57 -21 -71 c-18
-57 -26 -71 -42 -71 -14 0 -18 5 -14 18 20 68 37 147 34 161 -2 9 -14 -26 -28
-76 -19 -74 -27 -93 -42 -93 -23 0 -23 4 5 128 13 56 20 102 16 102 -4 0 -17
-44 -29 -97 -12 -54 -23 -104 -25 -110 -4 -13 -37 -18 -47 -8 -3 3 3 40 13 83
10 42 18 84 18 92 0 31 -16 -15 -33 -92 -17 -77 -18 -78 -48 -78 l-31 0 7 53
c3 28 6 79 6 112 l0 60 103 0 102 0 28 -56z m-1090 -207 c162 -175 222 -246
157 -187 -58 53 -350 368 -350 378 0 15 22 -7 193 -191z m825 -220 c148 -207
272 -382 275 -389 29 -47 -220 -540 -281 -557 -9 -3 -46 -6 -82 -8 l-65 -3 -7
110 c-17 286 -33 458 -74 800 -24 204 -47 385 -50 404 -5 24 -4 32 5 27 6 -4
132 -177 279 -384z m322 259 c6 -30 8 -56 6 -58 -2 -2 -16 1 -31 7 -23 9 -26
14 -21 36 4 15 10 40 13 56 8 40 21 24 33 -41z m-820 -25 c0 -8 -7 -19 -15
-26 -13 -10 -15 -9 -15 9 0 11 -6 21 -12 22 -7 0 -4 4 7 8 23 10 35 5 35 -13z
m-75 -11 c0 -17 -5 -25 -17 -25 -12 0 -18 8 -18 25 0 17 6 25 18 25 12 0 17
-8 17 -25z m0 -54 c7 -12 -12 -24 -25 -16 -11 7 -4 25 10 25 5 0 11 -4 15 -9z
m65 0 c0 -14 -18 -23 -30 -16 -6 4 -8 11 -5 16 8 12 35 12 35 0z m-62 -59 c2
-7 -6 -12 -17 -12 -21 0 -27 11 -14 24 9 9 26 2 31 -12z m67 -2 c-3 -5 -12
-10 -20 -10 -8 0 -17 5 -20 10 -4 6 5 10 20 10 15 0 24 -4 20 -10z m0 -90 c0
-34 -4 -46 -17 -48 -12 -2 -18 7 -23 37 -8 46 -1 64 23 59 13 -2 17 -14 17
-48z m-68 -7 c-3 -10 -5 -2 -5 17 0 19 2 27 5 18 2 -10 2 -26 0 -35z m2467
-164 c168 -373 237 -518 334 -704 143 -273 306 -569 335 -607 20 -26 30 -60
45 -158 12 -69 23 -161 27 -205 3 -44 8 -97 11 -117 5 -36 2 -41 -82 -128 -48
-49 -89 -88 -91 -86 -2 2 12 29 32 60 19 31 32 56 27 56 -5 0 -28 -35 -53 -77
-43 -77 -161 -214 -173 -202 -4 3 30 76 74 161 44 85 80 161 80 169 0 8 -40
-62 -88 -156 l-88 -170 -63 2 c-35 1 -64 3 -66 5 -6 5 -30 375 -30 453 0 39
-3 72 -7 75 -3 3 -14 66 -23 140 -9 74 -24 200 -35 280 -10 80 -21 170 -25
200 -28 252 -158 925 -215 1121 -39 129 -28 113 74 -112z m-2474 81 c-10 -9
-24 -29 -30 -45 -16 -42 -18 -27 -7 46 l11 66 23 -25 c23 -24 23 -25 3 -42z
m-72 -17 c-16 -65 -35 -54 -29 17 3 46 10 56 26 39 11 -11 12 -22 3 -56z m59
-85 c-3 -7 -5 -2 -5 12 0 14 2 19 5 13 2 -7 2 -19 0 -25z m38 -18 c3 -5 1 -10
-4 -10 -6 0 -11 5 -11 10 0 6 2 10 4 10 3 0 8 -4 11 -10z m-7 -116 c-4 -6 -5
-14 -1 -18 14 -13 11 -76 -4 -76 -15 0 -18 77 -6 145 l8 40 5 -40 c3 -22 2
-45 -2 -51z m-83 -82 c-13 -36 -22 10 -11 61 l11 52 3 -49 c2 -27 0 -56 -3
-64z m-124 -383 c-44 -211 -114 -544 -156 -739 -129 -605 -153 -720 -181 -865
-14 -77 -30 -145 -35 -150 -4 -6 -26 -9 -49 -7 -32 3 -40 8 -36 21 2 9 39 160
81 336 110 455 434 1771 442 1792 22 57 4 -48 -66 -388z m210 329 c6 -53 5
-88 -4 -88 -6 0 -3 -8 6 -18 11 -11 13 -22 7 -32 -5 -9 -5 -19 2 -27 15 -19 4
-27 -20 -14 -18 9 -20 21 -21 101 0 72 3 90 14 90 8 0 16 -6 16 -12z m-100
-69 c-9 -53 -9 -54 -10 -12 0 23 2 49 5 58 12 30 14 8 5 -46z m-81 -356 c-32
-188 -58 -312 -66 -319 -9 -8 -10 -14 -3 -21 12 -12 3 -73 -12 -73 -4 0 -6
-12 -3 -27 6 -35 -8 -115 -21 -120 -6 -1 -16 1 -23 6 -11 6 4 91 73 427 94
455 93 450 101 441 4 -3 -17 -145 -46 -314z m97 255 c-2 -13 -4 -3 -4 22 0 25
2 35 4 23 2 -13 2 -33 0 -45z m3658 -56 c15 -51 25 -95 22 -98 -2 -3 -23 24
-45 58 -40 62 -40 64 -30 111 14 57 17 53 53 -71z m-3686 26 c0 -7 -4 -22 -9
-33 -7 -17 -9 -15 -9 13 -1 17 4 32 9 32 6 0 10 -6 9 -12z m126 -17 c3 -5 1
-13 -5 -16 -8 -5 -7 -11 1 -22 10 -12 10 -16 -1 -23 -11 -7 -11 -11 -1 -23 9
-12 9 -16 -1 -19 -10 -4 -10 -8 1 -22 12 -15 13 -19 1 -26 -11 -7 -11 -11 0
-24 16 -21 10 -27 -18 -19 -21 5 -22 11 -22 97 0 51 3 96 7 99 9 10 31 9 38
-2z m-92 -104 c-4 -51 -10 -76 -17 -74 -13 4 -14 106 -2 152 13 52 24 7 19
-78z m2505 -2 c7 -33 18 -64 24 -70 11 -10 9 6 -11 88 -10 41 -1 52 36 45 14
-2 21 -20 31 -77 7 -40 11 -76 7 -79 -3 -3 -46 -8 -95 -10 l-89 -4 -11 42 c-8
30 -8 45 0 55 6 7 8 25 4 41 l-7 27 -23 -26 c-28 -32 -34 -34 -34 -7 0 28 33
40 100 37 l55 -2 13 -60z m533 33 c31 -11 49 -41 49 -84 0 -21 -5 -24 -34 -24
-18 0 -60 -3 -92 -6 l-59 -6 -32 66 c-18 37 -33 69 -33 73 0 9 165 -6 201 -19z
m-991 -9 c0 -6 7 -8 16 -5 14 5 16 1 11 -23 -4 -20 -2 -31 8 -35 11 -4 10 -12
-5 -44 l-19 -39 -108 -6 c-59 -4 -225 -10 -367 -13 l-260 -7 -33 39 c-33 39
-47 29 -18 -13 15 -21 14 -22 -37 -27 -80 -9 -521 -27 -526 -22 -18 19 642
131 1038 176 58 6 134 15 170 19 97 12 130 12 130 0z m220 1 c-20 -13 -153
-13 -145 0 3 6 41 10 83 10 53 0 72 -3 62 -10z m40 -20 c0 -5 -5 -10 -11 -10
-5 0 -7 5 -4 10 3 6 8 10 11 10 2 0 4 -4 4 -10z m-2394 -349 c-14 -117 -28
-217 -32 -222 -3 -5 -12 -9 -20 -9 -18 0 -18 47 1 147 8 43 24 141 36 218 27
184 33 206 37 134 2 -31 -9 -152 -22 -268z m2262 294 c-4 -20 -1 -26 19 -31
17 -5 21 -10 14 -17 -7 -7 -15 -6 -27 4 -13 11 -18 11 -21 2 -7 -19 -23 -16
-23 5 0 18 26 62 37 62 3 0 3 -11 1 -25z m-57 -41 c-6 -15 -14 -24 -16 -22 -3
3 -2 19 1 37 5 22 10 29 17 22 7 -7 7 -19 -2 -37z m203 24 c10 -38 7 -48 -14
-48 -16 0 -20 7 -20 35 0 40 24 49 34 13z m57 -10 c6 -23 4 -28 -11 -28 -18 0
-30 19 -30 47 0 25 33 10 41 -19z m-1930 -343 c-11 -227 -72 -698 -87 -682 -5
4 -54 426 -54 461 0 13 -3 17 -10 10 -9 -9 -5 -63 15 -236 5 -43 4 -48 -14
-48 -17 0 -21 9 -27 60 -4 33 -11 60 -16 60 -5 0 -7 -12 -4 -27 3 -16 6 -55 8
-88 3 -58 2 -60 -23 -63 -17 -2 -29 3 -33 13 -3 9 18 105 48 213 30 109 79
287 109 397 31 110 61 220 68 245 l13 45 9 -75 c5 -47 5 -153 -2 -285z m-484
303 c-3 -8 -6 -5 -6 6 -1 11 2 17 5 13 3 -3 4 -12 1 -19z m3133 12 c0 -6 -36
-9 -92 -8 -80 1 -86 2 -43 8 79 11 135 11 135 0z m-3009 -23 c-8 -10 -7 -17 1
-25 9 -9 9 -15 0 -24 -9 -9 -8 -16 5 -30 15 -17 15 -18 0 -18 -21 0 -22 -19
-2 -26 8 -4 15 -10 15 -15 0 -5 -7 -9 -15 -9 -20 0 -19 -10 3 -27 16 -12 15
-13 -8 -11 -25 3 -25 5 -28 101 -3 94 -2 97 19 97 17 0 19 -3 10 -13z m2429
-7 c-131 -12 -353 -19 -345 -12 8 9 175 19 320 19 l110 0 -85 -7z m-2539 -100
c-10 -25 -10 -24 -10 6 -1 17 2 47 7 65 l7 34 3 -40 c2 -23 -1 -52 -7 -65z
m3143 49 c9 -28 32 -137 51 -243 20 -105 37 -199 39 -208 8 -37 -10 -15 -50
60 -187 350 -224 423 -224 432 0 6 33 10 85 10 l84 0 15 -51z m-493 -94 c76
-534 129 -1029 129 -1194 0 -81 -1 -86 -36 -131 l-36 -47 -201 -6 c-434 -13
-925 -76 -1262 -162 -182 -46 -403 -117 -575 -185 -36 -14 -50 -16 -50 -7 0 6
-5 4 -11 -6 -9 -15 -117 -77 -134 -77 -4 0 3 13 14 29 98 137 257 561 322 859
27 122 38 434 19 551 -26 164 -58 280 -116 417 -6 13 47 17 441 34 324 14 745
28 1060 36 143 3 262 8 265 10 2 3 38 3 79 2 l75 -3 17 -120z m-1948 -8 c93
-191 134 -589 88 -852 -25 -140 -27 -146 -57 -140 -13 3 -35 7 -49 10 -29 6
-31 19 -10 68 8 20 15 42 15 49 0 21 -16 -4 -35 -54 -16 -43 -21 -48 -47 -48
-20 0 -28 4 -25 13 34 77 96 241 93 244 -7 7 -23 -28 -52 -109 -44 -122 -59
-146 -88 -141 l-25 5 20 52 c34 85 129 356 129 369 0 23 -17 -10 -34 -68 -37
-125 -129 -346 -149 -356 -10 -6 -21 -8 -24 -6 -2 3 32 116 76 251 45 135 81
253 81 263 0 10 -40 -101 -89 -246 -49 -145 -95 -267 -102 -272 -23 -15 -41
-10 -35 9 41 131 116 685 116 855 0 169 -1 166 110 164 l65 -2 28 -58z m-676
-19 c-2 -13 -4 -3 -4 22 0 25 2 35 4 23 2 -13 2 -33 0 -45z m-50 -68 c-13 -39
-17 -68 -13 -105 4 -27 7 -61 7 -75 1 -30 -18 -338 -26 -430 -3 -36 -16 -207
-30 -380 -36 -457 -30 -420 -70 -420 -19 0 -36 4 -39 9 -3 4 4 89 14 187 11
98 34 319 50 489 17 171 44 428 62 572 31 254 32 261 48 235 16 -25 15 -30 -3
-82z m53 -76 c0 -94 -2 -105 -15 -94 -12 10 -14 28 -9 94 3 44 7 87 10 94 10
32 14 3 14 -94z m82 87 c-1 -7 2 -19 8 -26 8 -10 7 -14 -2 -18 -10 -4 -11 -7
0 -18 16 -18 15 -29 -3 -29 -19 0 -19 -14 0 -30 13 -11 13 -14 -2 -26 -17 -12
-17 -13 0 -19 25 -10 21 -27 -5 -23 -22 3 -23 8 -26 106 -2 95 -1 103 15 100
10 -2 17 -10 15 -17z m-79 -258 c11 -89 8 -395 -4 -387 -36 22 -52 160 -24
198 12 16 12 23 0 54 -25 57 -15 182 13 182 5 0 12 -21 15 -47z m-138 -13 c0
-39 -3 -45 -22 -48 -20 -3 -23 1 -23 31 0 48 9 69 29 65 12 -2 16 -15 16 -48z
m222 13 c10 -21 10 -29 1 -34 -9 -6 -9 -11 1 -22 8 -11 9 -17 1 -22 -8 -5 -7
-11 1 -22 10 -12 10 -16 -1 -23 -11 -7 -11 -11 -1 -24 18 -21 -3 -21 -23 0
-11 11 -16 35 -16 79 0 94 14 119 37 68z m-301 -64 c3 -5 3 -23 -1 -39 -5 -23
-12 -30 -31 -30 -25 0 -28 8 -18 58 5 23 10 29 25 25 11 -3 22 -9 25 -14z m74
-38 c0 -10 -3 -33 -6 -50 -5 -25 -12 -31 -33 -32 l-26 -1 26 -11 c24 -9 26
-14 22 -56 -3 -25 -6 -52 -8 -58 -4 -13 -46 -18 -57 -8 -2 3 1 42 8 87 24 153
22 148 49 148 18 0 25 -6 25 -19z m-90 -76 c0 -20 -5 -25 -24 -25 -14 0 -27 4
-30 9 -11 18 6 41 30 41 19 0 24 -5 24 -25z m324 -14 c4 -5 0 -11 -6 -14 -10
-3 -10 -7 0 -20 11 -13 10 -17 -5 -26 -17 -9 -17 -10 0 -16 22 -9 22 -25 0
-25 -15 0 -15 -2 1 -19 13 -15 14 -20 4 -24 -10 -4 -11 -7 0 -18 18 -20 15
-31 -10 -27 -21 3 -23 9 -26 86 -2 46 -1 90 2 98 6 16 32 19 40 5z m-334 -55
c0 -48 -12 -68 -36 -63 -29 5 -32 -9 -3 -18 15 -5 19 -14 17 -33 -2 -22 -9
-28 -35 -30 -18 -2 -33 0 -33 3 0 7 30 145 35 161 2 7 15 9 29 7 18 -4 26 -12
26 -27z m4760 0 c234 -34 593 -111 785 -167 93 -28 255 -90 255 -98 0 -4 -60
-33 -132 -66 -73 -32 -224 -101 -336 -152 -159 -73 -207 -91 -221 -83 -29 15
-501 556 -501 574 0 9 46 7 150 -8z m-4207 -93 c7 -40 3 -53 -17 -53 -18 0
-29 72 -13 82 20 13 24 9 30 -29z m-505 1 c18 -5 22 -13 22 -43 0 -50 -12 -65
-44 -57 -22 5 -26 12 -26 40 0 37 8 66 19 66 3 0 16 -3 29 -6z m149 -92 c-9
-20 -18 -44 -21 -52 -2 -8 -5 11 -5 42 -1 31 2 64 5 73 6 14 8 13 21 -5 14
-19 14 -26 0 -58z m253 -314 l10 -138 -32 -62 -33 -63 -7 250 c-6 211 -5 260
9 315 8 36 18 70 22 75 3 6 9 -46 13 -115 4 -69 12 -187 18 -262z m48 349 c3
-23 0 -27 -22 -27 -21 0 -26 5 -26 23 0 13 3 27 7 31 15 14 38 0 41 -27z
m-542 -17 c8 0 14 -10 14 -25 0 -18 -5 -25 -19 -25 -32 0 -51 11 -51 29 0 23
11 33 28 26 7 -3 20 -5 28 -5z m612 -58 c-2 -25 -8 -37 -18 -37 -20 0 -27 84
-8 96 18 11 30 -14 26 -59z m-318 -187 c0 -135 -2 -245 -5 -245 -2 0 -14 18
-25 40 -24 46 -25 106 -5 173 13 44 13 52 -1 80 -27 51 -7 197 26 197 6 0 10
-94 10 -245z m90 200 c0 -7 -5 -17 -10 -20 -8 -5 -7 -12 1 -22 10 -12 10 -17
-2 -25 -11 -7 -11 -11 -1 -15 6 -2 12 -11 12 -18 0 -7 -6 -16 -12 -19 -10 -5
-10 -7 0 -12 15 -7 16 -34 1 -34 -8 0 -8 -5 1 -15 13 -16 3 -20 -17 -7 -14 9
-30 179 -20 206 5 14 11 15 27 6 11 -6 20 -17 20 -25z m5720 24 c-33 -22 -92
-50 -97 -45 -3 2 17 16 44 30 48 25 81 35 53 15z m-5550 -40 c0 -27 -3 -30
-27 -27 -22 2 -29 9 -31 31 -3 24 0 27 27 27 28 0 31 -3 31 -31z m-452 6 c2
-2 1 -25 -2 -50 -7 -45 -13 -50 -53 -39 -24 7 -29 34 -16 82 5 20 10 23 36 18
17 -3 33 -8 35 -11z m-100 -20 c2 -2 2 -16 -2 -30 -4 -17 -13 -25 -29 -25 -35
0 -46 12 -40 44 5 25 9 27 36 22 17 -3 33 -8 35 -11z m3851 -44 c-19 -34 -28
-41 -53 -41 l-31 1 49 44 c28 25 52 43 54 40 2 -2 -6 -22 -19 -44z m2087 14
c-21 -16 -32 -13 -21 4 3 6 14 11 23 11 15 -1 15 -2 -2 -15z m-5707 -106 c11
-21 10 -35 -3 -79 -21 -71 -20 -105 5 -157 19 -38 20 -49 10 -88 -13 -53 -16
-138 -6 -183 7 -32 7 -32 -34 -32 -50 0 -48 -34 -19 355 15 196 25 284 29 255
3 -25 11 -57 18 -71z m319 89 c21 -21 13 -38 -18 -38 -25 0 -30 4 -30 25 0 27
26 35 48 13z m72 -22 c0 -15 -7 -26 -20 -29 -17 -4 -20 0 -20 24 0 22 5 29 20
29 14 0 20 -7 20 -24z m5270 18 c0 -12 -213 -105 -221 -97 -6 6 32 28 93 56
98 44 128 54 128 41z m35 -33 c-17 -16 -136 -124 -265 -242 -129 -117 -302
-274 -383 -348 -144 -132 -204 -179 -141 -110 17 19 84 95 150 169 65 74 164
185 219 245 55 61 114 127 132 147 17 20 53 46 80 58 28 12 88 41 134 65 99
52 115 56 74 16z m-5944 0 c4 -3 4 -23 2 -43 -5 -33 -9 -38 -32 -38 -43 0 -54
13 -46 51 4 19 9 37 12 42 4 7 54 -1 64 -12z m106 -5 c1 -1 -1 -31 -5 -66 l-7
-65 -35 3 c-19 1 -38 6 -41 10 -4 4 -2 35 3 69 l10 61 37 -5 c20 -3 37 -7 38
-7z m473 -46 c0 -27 -3 -30 -30 -30 -27 0 -30 3 -30 30 0 27 3 30 30 30 27 0
30 -3 30 -30z m46 4 c-3 -9 -6 -20 -6 -25 0 -5 -4 -9 -10 -9 -11 0 -14 33 -3
43 12 13 25 7 19 -9z m3080 7 c-6 -10 -278 -256 -310 -281 -18 -14 -19 -14 -7
8 6 12 9 22 6 22 -2 0 -13 -16 -22 -37 -22 -45 -42 -58 -77 -49 -26 6 -20 13
140 176 l168 170 53 0 c30 0 52 -4 49 -9z m136 -8 c19 -23 358 -539 358 -546
0 -3 -35 8 -77 24 -98 36 -292 92 -400 115 -46 9 -83 21 -83 25 0 4 20 34 45
68 25 34 41 61 36 61 -5 0 -30 -29 -56 -65 -25 -36 -50 -65 -54 -65 -22 0
-127 24 -135 31 -5 4 21 54 58 112 36 57 66 108 66 114 0 6 33 41 73 77 64 58
77 66 113 66 27 0 46 -6 56 -17z m141 7 c40 -6 87 -13 105 -16 l32 -5 0 -98
c0 -114 -10 -221 -20 -221 -9 0 -230 330 -230 344 0 9 31 7 113 -4z m392 -60
c287 -56 500 -102 580 -126 50 -14 107 -31 128 -37 21 -5 35 -13 30 -18 -10
-9 -812 -369 -824 -369 -5 0 -44 50 -88 112 -67 95 -78 115 -70 135 5 13 12
94 15 180 l7 155 61 -6 c34 -3 106 -15 161 -26z m-3632 -12 c-4 -23 -2 -30 5
-23 5 6 12 19 14 30 3 17 11 20 58 19 56 -1 190 -21 198 -29 3 -2 -10 -57 -27
-121 -36 -128 -115 -338 -184 -484 -52 -110 -47 -116 -67 90 -6 63 -18 156
-25 205 -18 114 -31 253 -27 284 5 38 21 61 42 61 17 0 19 -5 13 -32z m4892
22 c-8 -13 -228 -119 -436 -211 -86 -37 -194 -87 -240 -109 -51 -25 -85 -36
-88 -29 -2 6 1 14 5 19 14 12 283 130 297 130 7 0 19 6 25 13 15 14 411 195
430 196 7 1 10 -4 7 -9z m-5651 -20 c4 -5 4 -21 -1 -37 -8 -23 -16 -28 -38
-26 -38 3 -46 14 -39 52 6 30 9 32 38 25 17 -3 35 -10 40 -14z m402 12 c5 -4
10 -18 10 -32 0 -14 -5 -28 -10 -32 -7 -5 -6 -11 4 -18 12 -8 12 -12 2 -18
-10 -7 -10 -12 3 -22 16 -13 16 -15 1 -26 -15 -10 -15 -12 -1 -18 20 -7 19
-26 -1 -26 -14 0 -14 -3 -4 -15 15 -18 7 -30 -15 -22 -12 5 -15 27 -15 122 0
111 3 123 26 107z m293 -6 c-12 -10 -49 -16 -49 -7 0 5 10 11 23 13 22 4 34 1
26 -6z m-84 -15 c8 -26 -5 -53 -22 -47 -8 3 -21 6 -29 6 -9 0 -14 11 -14 30 0
27 3 30 29 30 20 0 32 -6 36 -19z m4954 -113 c-228 -254 -513 -558 -521 -558
-5 0 -21 25 -35 57 l-26 56 44 40 c24 23 103 98 176 168 95 91 152 138 206
168 62 34 76 47 79 69 2 22 16 34 73 64 39 21 76 38 83 38 8 0 -28 -46 -79
-102z m-5481 77 c17 -5 22 -14 22 -40 0 -41 -11 -49 -56 -41 -27 6 -34 12 -34
29 0 42 12 68 29 63 9 -2 26 -7 39 -11z m597 -30 c0 -35 -3 -40 -24 -40 -28 0
-42 30 -30 63 6 17 15 22 31 20 20 -3 23 -9 23 -43z m-698 -15 c5 0 3 -39 -3
-54 -4 -11 -19 -16 -45 -16 -43 0 -49 13 -29 64 8 23 12 24 42 15 18 -5 34 -9
35 -9z m610 8 c-17 -41 -33 -68 -39 -68 -5 0 -8 18 -8 40 0 36 2 40 26 40 17
0 24 -4 21 -12z m2942 -98 c-34 -56 -66 -103 -69 -105 -12 -7 -91 8 -88 17 5
13 212 197 217 192 2 -2 -25 -49 -60 -104z m1911 47 c0 -7 -34 -29 -75 -50
-41 -20 -75 -35 -75 -33 0 22 23 43 74 67 69 33 76 34 76 16z m-5377 -13 c20
-4 27 -12 27 -29 0 -44 -10 -55 -50 -55 -47 0 -52 7 -44 60 5 31 10 39 23 36
9 -3 28 -8 44 -12z m625 -24 c-3 -23 -32 -49 -42 -39 -3 3 -9 19 -12 36 -5 27
-3 32 17 35 31 5 42 -4 37 -32z m-80 3 c-2 -20 -9 -29 -25 -31 -27 -4 -29 5
-7 36 21 30 36 28 32 -5z m-644 -55 c-9 -56 -13 -60 -57 -47 -38 10 -43 21
-31 67 5 19 13 22 50 22 l44 0 -6 -42z m5303 6 c2 -6 -14 -18 -34 -29 -92 -45
-316 -145 -325 -145 -5 0 -8 8 -6 17 3 17 332 175 352 169 6 -1 11 -7 13 -12z
m-4647 -39 c0 -29 -4 -36 -26 -41 -30 -8 -39 0 -47 44 -6 32 -6 32 33 32 39 0
40 -1 40 -35z m76 -1 c8 -30 -6 -47 -32 -42 -13 2 -20 13 -22 36 -3 28 0 32
22 32 19 0 27 -7 32 -26z m-617 0 c2 -2 0 -24 -4 -49 -6 -46 -7 -46 -38 -39
-48 10 -69 24 -63 41 3 8 6 26 6 39 0 24 2 25 48 18 26 -3 49 -8 51 -10z m247
-152 l10 -157 -63 -92 c-35 -51 -63 -97 -63 -103 0 -24 19 -6 61 55 24 36 47
65 51 65 10 0 10 -212 0 -225 -4 -5 -42 -10 -85 -10 l-77 0 1 50 c0 28 6 109
12 180 l12 130 40 3 c90 6 98 13 69 72 -13 25 -15 48 -10 100 14 153 28 129
42 -68z m91 142 c3 -8 1 -20 -5 -26 -9 -9 -8 -15 0 -26 9 -10 8 -16 -2 -22
-12 -7 -11 -10 3 -16 22 -8 22 -24 1 -24 -13 0 -14 -3 -4 -15 9 -11 5 -26 -22
-75 -24 -45 -34 -56 -36 -41 -2 11 2 29 7 40 6 11 11 65 11 120 0 95 1 101 20
101 11 0 23 -7 27 -16z m133 -329 c7 -126 16 -259 20 -295 8 -68 1 -90 -30
-90 -9 0 -25 9 -34 19 -16 17 -19 56 -27 307 l-9 288 27 53 28 53 7 -52 c4
-29 12 -156 18 -283z m2659 310 c2 -3 -8 -19 -24 -35 -26 -27 -35 -30 -92 -30
-38 0 -63 4 -63 11 0 6 14 24 31 41 29 29 33 30 87 24 31 -4 58 -9 61 -11z
m1949 -83 c-126 -120 -184 -172 -191 -172 -6 0 -49 111 -45 115 7 6 324 154
331 154 5 1 -38 -43 -95 -97z m-5215 71 c10 -6 -3 -76 -15 -84 -15 -10 -69 3
-75 17 -3 8 -2 30 1 49 7 35 8 36 44 29 20 -4 41 -9 45 -11z m3357 -1 c0 -18
-47 -52 -72 -52 -35 0 -35 7 -3 40 19 19 33 26 50 22 14 -2 25 -7 25 -10z
m251 -37 c187 -34 448 -98 479 -117 10 -6 5 -7 -15 -3 -193 43 -286 58 -462
75 -115 11 -224 23 -243 26 l-35 6 28 24 c16 13 34 24 41 24 7 0 100 -16 207
-35z m-2926 -15 c0 -42 -24 -51 -54 -21 -37 37 -21 62 34 58 16 -2 20 -9 20
-37z m83 -8 c3 -31 2 -33 -25 -30 -24 2 -28 8 -31 36 -3 31 -2 33 25 30 24 -2
28 -8 31 -36z m4147 -12 c17 -34 18 -40 6 -40 -7 0 -31 51 -31 66 0 12 12 0
25 -26z m-4829 9 c37 -10 45 -15 42 -33 -2 -17 -11 -22 -47 -24 -51 -4 -66 7
-57 42 7 30 4 29 62 15z m4781 -21 c38 -36 30 -52 -44 -86 -38 -16 -144 -65
-237 -107 -92 -42 -174 -74 -182 -71 -35 13 -6 36 114 91 278 127 322 148 322
156 0 10 -58 -12 -175 -66 -44 -21 -205 -93 -357 -161 -356 -158 -385 -177
-254 -163 43 4 73 13 91 27 28 23 48 19 74 -12 16 -19 5 -22 -146 -36 -62 -6
-120 -13 -130 -17 -11 -4 -14 -3 -9 5 4 7 -3 14 -19 18 -34 8 -45 -4 -21 -22
24 -17 7 -18 -29 -2 -14 6 -24 16 -22 22 3 10 142 75 477 221 80 35 226 100
325 144 99 45 184 81 189 81 6 0 20 -10 33 -22z m-1858 -14 c-14 -18 -24 -11
-15 11 3 9 11 13 16 10 8 -5 7 -11 -1 -21z m171 18 c0 -5 -14 -21 -30 -37 -26
-25 -32 -27 -40 -15 -11 18 -13 44 -3 53 9 10 73 9 73 -1z m84 -1 c3 -5 -26
-36 -66 -70 -53 -46 -73 -59 -79 -49 -6 9 10 31 49 71 53 53 84 69 96 48z
m-522 -38 c4 -71 5 -88 11 -103 3 -8 8 -35 11 -60 l6 -45 -36 40 c-45 50 -54
73 -54 136 0 42 3 51 23 59 35 14 37 12 39 -27z m98 12 c0 -30 -15 -33 -30 -6
-14 27 -13 31 10 31 15 0 20 -7 20 -25z m90 15 c-36 -12 -70 -12 -70 0 0 6 21
10 48 9 38 -1 42 -2 22 -9z m155 -36 c6 -42 4 -49 -21 -75 -37 -38 -50 -37
-59 7 -5 29 -1 44 19 75 35 52 52 50 61 -7z m295 4 c6 -24 23 -86 36 -138 29
-109 40 -140 52 -140 5 0 -9 64 -30 142 -21 78 -38 148 -38 155 0 9 15 13 44
13 43 0 43 0 63 -52 39 -100 105 -329 99 -343 -3 -8 3 -19 12 -24 15 -9 14
-10 -5 -11 -12 0 -27 9 -33 20 -14 26 -108 72 -132 64 -11 -3 -18 -15 -18 -29
0 -32 -17 -75 -30 -75 -6 0 -10 32 -10 79 0 83 -6 97 -41 86 -16 -5 -19 -12
-14 -28 4 -12 10 -43 12 -69 l5 -47 -56 -16 c-41 -12 -60 -13 -75 -5 -16 8
-28 7 -50 -5 -17 -8 -32 -15 -34 -15 -2 0 -20 24 -40 54 -25 37 -40 76 -48
121 l-13 66 32 31 c17 18 34 29 38 26 3 -4 15 -53 26 -110 19 -99 37 -155 38
-117 0 9 -9 61 -20 114 -30 145 -31 139 66 223 69 59 91 72 119 72 32 0 35 -3
45 -42z m-3417 18 c24 -6 28 -11 25 -34 -3 -24 -8 -27 -46 -30 -47 -4 -59 10
-48 54 5 17 12 24 24 20 9 -2 30 -7 45 -10z m2668 -2 c11 -13 10 -17 -4 -25
-19 -11 -14 -52 10 -81 13 -14 12 -18 -4 -27 -17 -10 -17 -12 0 -25 20 -16 22
-26 5 -26 -7 0 -23 16 -35 35 -18 27 -23 49 -23 100 0 57 2 65 19 65 10 0 25
-7 32 -16z m159 -26 c0 -4 -7 -8 -15 -8 -10 0 -15 10 -15 28 1 26 1 26 15 8 8
-11 15 -23 15 -28z m-2095 2 c0 -22 -5 -25 -37 -28 -36 -3 -38 -2 -38 28 0 30
2 31 38 28 32 -3 37 -6 37 -28z m1845 4 c0 -27 -14 -25 -30 7 -9 16 -7 19 10
19 15 0 20 -7 20 -26z m430 22 c0 -2 3 -11 6 -19 9 -24 -24 -47 -67 -47 -35 0
-39 3 -39 25 0 19 7 26 28 31 15 3 32 7 37 9 15 5 35 6 35 1z m750 -16 c176
-22 318 -49 427 -81 115 -34 111 -33 89 -15 -28 22 -3 20 45 -5 22 -11 39 -25
37 -31 -2 -6 -69 -39 -148 -74 -123 -53 -151 -62 -185 -57 -22 3 -44 9 -49 14
-26 24 -86 5 -86 -26 0 -32 -11 -37 -48 -23 -24 9 -37 9 -59 -2 -15 -7 -38
-12 -50 -11 -22 2 -28 -7 -24 -36 4 -28 -18 -10 -37 30 -17 37 -112 318 -112
332 0 8 26 6 200 -15z m-2962 4 c31 -9 26 -48 -5 -52 -13 -2 -23 0 -23 5 0 4
-3 18 -6 31 -7 23 -3 25 34 16z m1669 -21 c-3 -16 -13 -91 -22 -168 -10 -77
-20 -143 -24 -147 -6 -6 -87 5 -96 14 -2 2 6 73 19 157 15 102 27 155 37 162
8 5 31 9 53 9 37 0 38 -1 33 -27z m95 -41 c28 -41 30 -48 21 -88 -6 -23 -6
-49 -2 -56 5 -7 9 -47 9 -89 0 -88 -1 -89 -87 -89 l-56 0 6 43 c3 23 13 105
22 182 9 77 18 146 21 154 6 18 26 1 66 -57z m-2426 38 c15 0 24 -6 24 -15 0
-12 -13 -15 -55 -15 -47 0 -55 3 -55 18 0 27 9 32 37 21 13 -5 35 -9 49 -9z
m2204 11 c0 -12 -26 -21 -61 -21 -32 0 -40 16 -11 23 31 8 72 7 72 -2z m-126
-26 c-6 -16 -25 -19 -61 -9 -38 10 -26 24 22 24 35 0 43 -3 39 -15z m2835
-102 c67 -149 74 -170 20 -68 -57 108 -90 185 -81 185 4 0 32 -53 61 -117z
m-2181 79 c15 -23 15 -23 -19 -20 -27 2 -35 8 -37 26 -3 19 0 23 19 20 12 -2
29 -13 37 -26z m-2338 8 c0 -5 -5 -10 -11 -10 -5 0 -7 5 -4 10 3 6 8 10 11 10
2 0 4 -4 4 -10z m1550 3 c0 -5 -18 -69 -41 -144 l-42 -137 -49 -6 c-28 -4 -53
-4 -56 -1 -6 5 31 127 70 232 10 29 26 54 36 56 29 8 82 7 82 0z m2900 -49
c18 -30 29 -58 26 -61 -7 -7 -359 -33 -365 -27 -2 2 11 10 30 18 19 8 86 39
149 70 63 31 118 56 122 56 3 0 21 -25 38 -56z m-2807 31 c22 -4 28 -11 25
-28 -3 -19 -9 -22 -46 -21 -23 0 -47 5 -51 10 -15 15 6 53 26 49 10 -2 31 -6
46 -10z m157 4 c0 -19 -41 -49 -67 -49 -31 0 -42 29 -18 46 23 17 85 18 85 3z
m-1586 -21 c4 -15 0 -27 -11 -35 -35 -26 -73 -8 -73 34 0 20 5 23 39 23 32 0
40 -4 45 -22z m1206 18 c0 -4 -91 -270 -93 -273 -1 -1 -83 -9 -182 -18 -247
-22 -334 -34 -366 -51 -26 -13 -49 -59 -63 -126 -5 -20 -10 -25 -26 -21 -11 3
-20 11 -20 17 0 16 44 146 58 172 6 10 19 46 29 79 17 53 24 62 58 79 82 39
605 162 605 142z m1069 -47 c-8 -5 -22 -9 -32 -9 -17 0 -16 3 5 29 22 27 24
27 32 9 7 -14 6 -22 -5 -29z m-3249 19 c-1 -28 -66 -287 -74 -296 -4 -3 -100
4 -214 16 -114 12 -358 38 -542 57 -184 20 -439 46 -567 60 -128 14 -242 25
-253 25 -32 0 -23 19 13 24 17 3 88 15 157 27 533 89 715 106 1163 108 l317 1
0 -22z m120 2 c0 -39 -51 -275 -61 -281 -5 -3 -7 -13 -3 -22 7 -19 -10 -22
-65 -11 -22 5 -31 12 -31 25 0 11 16 85 36 164 l36 145 44 0 c38 0 44 -3 44
-20z m128 4 c2 -1 1 -12 -3 -23 -5 -16 -15 -21 -44 -21 -45 0 -70 22 -52 44 8
10 25 12 54 9 23 -3 44 -7 45 -9z m507 6 c3 -5 -1 -10 -9 -10 -9 0 -16 5 -16
10 0 6 4 10 9 10 6 0 13 -4 16 -10z m303 -17 c-5 -45 -48 -41 -62 5 -7 20 -4
22 29 22 34 0 36 -2 33 -27z m2136 5 c-10 -13 -19 -24 -20 -26 -1 -1 -9 9 -18
23 l-16 25 36 0 37 0 -19 -22z m-2816 -20 c3 -24 0 -28 -21 -28 -36 0 -87 20
-87 34 0 22 13 27 60 24 41 -3 45 -6 48 -30z m2992 14 c0 -16 -149 -152 -167
-152 -4 0 30 38 77 85 47 47 86 85 87 85 2 0 3 -8 3 -18z m-2884 -29 c-3 -21
-8 -87 -11 -148 -8 -155 -11 -165 -43 -165 -56 0 -57 4 -43 167 7 81 15 156
17 166 4 12 16 17 46 17 l40 0 -6 -37z m2648 -7 c-10 -27 -78 -18 -82 11 -3
18 2 22 30 25 39 4 61 -11 52 -36z m-584 -9 c0 -33 -18 -47 -61 -47 -42 0 -53
10 -44 40 4 14 17 20 48 23 23 2 45 4 50 5 4 1 7 -8 7 -21z m-1795 -14 c1 -12
-6 -25 -14 -28 -14 -6 -14 -7 2 -16 21 -12 22 -29 2 -29 -8 0 -15 -4 -15 -9 0
-5 7 -11 15 -15 8 -3 15 -10 15 -16 0 -5 -7 -10 -15 -10 -21 0 -19 -9 7 -30
l22 -17 -24 -8 -23 -7 24 -19 c24 -18 24 -18 4 -33 -19 -13 -19 -15 -2 -21 21
-9 22 -25 1 -25 -10 0 -14 -6 -10 -15 4 -10 -1 -15 -14 -15 -19 0 -20 7 -20
154 0 85 -3 162 -6 171 -6 13 -1 16 21 13 21 -2 29 -9 30 -25z m1663 13 c1 -2
-2 -15 -7 -30 -9 -22 -17 -26 -48 -26 -52 0 -66 11 -57 45 7 26 8 27 58 20 28
-3 52 -8 54 -9z m845 7 c9 -9 -22 -43 -40 -43 -7 0 -13 2 -13 4 0 2 -3 11 -6
19 -7 19 44 36 59 20z m-3030 -23 c4 -4 3 -19 -3 -34 -9 -26 -13 -28 -48 -21
-20 4 -40 9 -44 11 -9 6 -11 48 -2 56 7 8 86 -2 97 -12z m119 3 c20 -4 27 -10
24 -20 -4 -8 -6 -26 -6 -39 0 -21 -4 -24 -41 -24 -57 0 -77 13 -72 47 8 51 12
56 39 49 15 -4 40 -10 56 -13z m628 -17 c0 -19 -6 -36 -12 -38 -23 -8 -63 7
-66 26 -7 32 6 46 43 46 33 0 35 -2 35 -34z m88 -4 c4 -30 -37 -48 -55 -24 -7
9 -13 24 -13 35 0 15 6 18 33 15 24 -2 33 -8 35 -26z m1817 -12 c22 -31 25
-43 16 -54 -9 -11 -8 -15 5 -20 13 -5 15 -9 6 -18 -21 -21 -54 23 -60 81 -2
28 -2 51 0 51 3 0 18 -18 33 -40z m128 -24 l46 -53 -45 -62 c-25 -33 -48 -61
-50 -61 -2 0 -4 18 -4 41 0 36 2 40 20 34 11 -3 20 -3 20 0 0 4 -9 18 -20 32
-14 18 -20 41 -20 74 0 27 2 49 4 49 2 0 24 -24 49 -54z m117 45 c0 -13 -50
-71 -61 -71 -5 0 -9 15 -9 34 0 30 4 35 28 39 15 2 30 5 35 6 4 0 7 -3 7 -8z
m-30 -146 c-60 -60 -112 -106 -116 -102 -12 11 119 175 144 182 17 4 22 11 18
22 -4 9 1 24 11 35 17 19 17 19 35 -4 17 -23 17 -23 -92 -133z m2194 65 c20
-37 24 -51 14 -54 -7 -3 -130 -14 -273 -26 -143 -12 -280 -24 -304 -27 l-45
-6 22 37 c12 20 22 47 22 60 0 34 55 56 148 57 42 0 142 6 222 13 80 6 150 8
156 4 6 -4 23 -30 38 -58z m-2902 24 c14 -9 -6 -46 -30 -55 -27 -10 -78 -4
-87 11 -3 5 -1 20 5 35 9 25 13 26 57 19 27 -3 51 -8 55 -10z m148 4 c0 -27
-34 -48 -77 -48 -44 0 -51 8 -37 44 8 20 114 23 114 4z m750 -3 c0 -8 -7 -15
-16 -15 -14 0 -14 3 -4 15 7 8 14 15 16 15 2 0 4 -7 4 -15z m1350 0 c0 -8 -4
-15 -10 -15 -5 0 -7 7 -4 15 4 8 8 15 10 15 2 0 4 -7 4 -15z m-3677 -10 c22
-4 28 -11 25 -28 -2 -17 -11 -23 -39 -25 -33 -3 -37 0 -42 25 -6 32 -1 44 16
38 7 -2 25 -6 40 -10z m3647 9 c0 -15 -30 -33 -45 -27 -15 5 -14 8 6 19 26 14
39 17 39 8z m-6422 -11 c-10 -2 -26 -2 -35 0 -10 3 -2 5 17 5 19 0 27 -2 18
-5z m2001 1 c27 -6 31 -11 31 -39 0 -33 -17 -48 -42 -41 -7 3 -25 7 -40 10
-28 6 -35 26 -22 60 7 17 24 20 73 10z m881 -19 c0 -30 -38 -55 -51 -34 -13
20 -11 47 4 52 31 13 47 7 47 -18z m430 0 c0 -14 -10 -35 -21 -46 -12 -12 -26
-39 -30 -59 -5 -21 -24 -72 -43 -114 l-35 -76 -45 0 c-25 0 -46 3 -46 6 0 3
20 51 44 107 25 56 48 114 51 129 10 39 34 54 123 77 1 1 2 -10 2 -24z m-3257
8 c-7 -2 -19 -2 -25 0 -7 3 -2 5 12 5 14 0 19 -2 13 -5z m360 -28 c461 -49
1252 -135 1286 -141 18 -3 31 -7 28 -10 -2 -3 -128 9 -278 25 -151 17 -494 53
-764 81 -446 46 -602 66 -537 69 12 1 131 -10 265 -24z m1765 0 c2 -1 0 -14
-3 -28 -5 -20 -15 -27 -45 -32 -69 -12 -93 9 -74 60 6 14 16 16 63 10 31 -4
57 -8 59 -10z m2932 0 c0 -8 -2 -15 -4 -15 -2 0 -6 7 -10 15 -3 8 -1 15 4 15
6 0 10 -7 10 -15z m1386 6 c-7 -11 -76 -20 -76 -10 0 10 20 17 53 18 16 1 26
-3 23 -8z m-1506 -4 c0 -2 -12 -14 -27 -28 l-28 -24 24 28 c23 25 31 32 31 24z
m90 -12 c17 -20 4 -35 -31 -35 -21 0 -29 5 -29 18 0 10 3 22 7 25 11 12 40 8
53 -8z m-1910 -4 c0 -5 -16 -28 -35 -51 -19 -23 -35 -49 -35 -57 0 -8 -17 -46
-37 -84 -28 -50 -44 -69 -58 -69 -22 0 -51 37 -46 58 1 8 -5 30 -15 50 -11 24
-14 40 -7 51 8 13 204 109 226 110 4 1 7 -3 7 -8z m1167 -14 c-2 -7 -30 -13
-66 -15 -57 -3 -61 -2 -53 15 8 15 20 17 67 15 37 -3 55 -8 52 -15z m1948 15
c-13 -11 -65 -33 -65 -27 0 2 12 11 28 19 30 17 52 21 37 8z m-1581 -65 c-3
-10 1 -20 10 -23 20 -8 21 -24 1 -24 -23 0 -18 -17 8 -25 l22 -8 -23 -4 c-16
-3 -22 -9 -18 -20 7 -17 -10 -53 -24 -53 -6 0 -10 47 -10 113 l0 112 20 -25
c11 -14 17 -33 14 -43z m-1906 41 c7 -7 12 -22 12 -34 0 -17 -8 -24 -30 -29
-37 -8 -60 8 -60 41 0 17 7 24 28 27 15 2 29 5 33 6 3 0 10 -4 17 -11z m74
-30 c-11 -18 -34 -46 -51 -62 -17 -17 -31 -36 -31 -43 0 -8 -12 -13 -30 -13
-26 0 -30 3 -30 29 0 25 5 30 33 36 63 13 67 15 67 45 0 22 6 30 28 38 36 12
38 9 14 -30z m1308 27 c0 -5 -25 -11 -55 -13 -45 -2 -55 0 -55 13 0 13 10 15
55 13 30 -2 55 -7 55 -13z m820 -14 c0 -11 3 -26 6 -35 8 -21 -14 -21 -38 1
-17 15 -17 17 -2 35 22 23 34 23 34 -1z m1375 9 c-3 -5 -10 -10 -16 -10 -5 0
-9 5 -9 10 0 6 7 10 16 10 8 0 12 -4 9 -10z m93 3 c-10 -2 -28 -2 -40 0 -13 2
-5 4 17 4 22 1 32 -1 23 -4z m-4460 -19 c8 -2 12 -15 10 -31 -3 -25 -8 -28
-43 -31 -53 -4 -79 15 -70 51 7 25 10 27 49 21 22 -3 47 -8 54 -10z m3114 -11
c27 -24 22 -40 -15 -47 -31 -6 -33 -9 -31 -42 l3 -35 -69 3 c-39 1 -70 5 -70
9 0 8 37 19 68 19 16 0 22 5 20 18 -2 12 10 23 40 37 51 24 55 37 7 24 -19 -6
-40 -7 -45 -4 -19 12 -10 24 23 28 17 2 36 5 41 5 5 1 18 -5 28 -15z m-2958
-30 c-1 -7 -2 -22 -2 -33 -2 -22 -30 -26 -91 -14 -26 5 -31 11 -31 34 0 14 2
29 4 31 3 2 31 2 63 -1 38 -3 58 -9 57 -17z m2006 17 c0 -5 -19 -9 -42 -9
l-43 2 40 7 c22 4 41 8 43 9 1 0 2 -3 2 -9z m83 3 c-7 -2 -21 -2 -30 0 -10 3
-4 5 12 5 17 0 24 -2 18 -5z m199 -11 c5 -5 6 -32 2 -62 l-7 -52 -56 7 c-65 8
-63 7 -55 29 4 12 19 16 53 16 33 0 42 3 31 10 -8 5 -27 10 -42 10 -16 0 -28
5 -28 10 0 6 12 10 28 11 25 1 23 3 -16 15 -7 2 -10 9 -6 15 8 13 81 6 96 -9z
m2003 8 c-29 -12 -138 -12 -130 0 3 6 39 10 78 9 50 0 66 -3 52 -9z m-2435
-20 c0 -12 -10 -24 -22 -30 -18 -7 -19 -9 -5 -9 20 -1 21 -5 7 -32 -9 -15 -22
-19 -65 -19 -60 0 -62 2 -41 60 13 36 34 46 99 49 21 1 27 -4 27 -19z m104
-10 c29 0 45 -4 41 -10 -6 -10 -107 -14 -117 -4 -3 3 -3 15 0 26 5 19 6 19 17
4 8 -11 27 -16 59 -16z m825 16 c10 -11 8 -16 -8 -21 -29 -9 -45 3 -30 21 15
18 23 18 38 0z m-1075 -18 c-3 -13 -12 -37 -19 -53 l-12 -30 -194 -23 c-250
-29 -301 -41 -314 -70 -15 -35 -36 -28 -28 11 3 17 6 33 7 33 3 5 370 54 407
55 24 1 55 4 69 8 l25 7 -30 16 c-26 13 -46 14 -160 3 -71 -7 -152 -16 -180
-20 -27 -4 -47 -4 -43 -1 3 4 68 16 143 26 139 19 204 38 85 25 -97 -10 -261
-35 -270 -40 -5 -3 -6 -14 -3 -25 6 -24 -15 -27 -24 -4 -3 9 2 24 13 35 16 16
53 23 199 39 99 11 203 21 230 23 115 8 107 9 99 -15z m1731 2 c3 -5 2 -10 -4
-10 -5 0 -13 5 -16 10 -3 6 -2 10 4 10 5 0 13 -4 16 -10z m-1290 -10 c4 -6
-17 -10 -54 -10 -34 0 -61 4 -61 10 0 6 24 10 54 10 30 0 58 -4 61 -10z m2120
1 c-16 -15 -68 -17 -72 -3 -3 8 8 12 38 12 26 0 39 -4 34 -9z m-3517 -26 c2
-10 -1 -27 -7 -39 -5 -11 -11 -32 -13 -46 -2 -17 -10 -26 -24 -28 -20 -3 -22
2 -25 48 -4 46 -1 54 21 71 29 21 44 20 48 -6z m2982 16 c0 -19 -316 -79 -332
-63 -7 7 1 13 28 18 22 4 91 17 154 29 133 26 150 28 150 16z m330 0 c0 -17
-97 -97 -157 -129 -32 -17 -99 -45 -149 -61 -92 -31 -370 -82 -554 -101 -58
-6 -175 -20 -260 -31 -177 -22 -485 -48 -577 -49 -56 0 -63 2 -63 19 0 23 5
23 220 41 149 12 434 41 663 67 169 19 160 13 155 123 -2 53 0 65 14 68 13 3
18 -9 23 -63 11 -101 26 -108 181 -81 166 30 389 116 430 168 25 32 74 52 74
29z m72 -38 c-51 -61 -102 -108 -124 -116 -10 -4 -18 -5 -18 -4 0 2 35 39 78
84 83 87 129 113 64 36z m-5835 31 c-3 -3 -12 -4 -19 -1 -8 3 -5 6 6 6 11 1
17 -2 13 -5z m4128 -5 c-55 -11 -85 -11 -85 1 0 6 27 10 63 9 59 -1 60 -2 22
-10z m548 4 c-7 -2 -19 -2 -25 0 -7 3 -2 5 12 5 14 0 19 -2 13 -5z m-4538 -13
c49 -7 49 -7 10 -8 -22 0 -60 3 -85 7 -41 8 -42 9 -10 9 19 0 58 -3 85 -8z
m948 -19 c87 -10 160 -21 163 -24 4 -3 2 -18 -3 -34 -11 -30 -5 -30 -121 -17
-56 6 -65 10 -78 35 -18 36 -47 37 -78 4 -28 -30 -44 -31 -96 -4 -29 15 -40
27 -40 45 0 26 -28 27 253 -5z m306 13 c2 -2 -19 -4 -47 -4 -30 0 -52 4 -52
11 0 9 87 3 99 -7z m2264 6 c-12 -5 -34 -5 -50 0 -24 7 -21 8 22 9 38 0 45 -2
28 -9z m377 -36 c0 -13 -4 -24 -10 -24 -5 0 -10 14 -10 31 0 17 4 28 10 24 6
-3 10 -17 10 -31z m1460 27 c0 -10 -36 -19 -210 -51 -166 -30 -169 -30 -174
-21 -3 4 45 15 107 24 62 10 144 26 182 36 82 23 95 24 95 12z m-5150 -16 l85
-14 -75 6 c-41 2 -93 8 -115 13 -71 14 10 10 105 -5z m1175 5 c16 -7 11 -9
-20 -9 -22 0 -49 4 -60 9 -16 7 -11 9 20 9 22 0 49 -4 60 -9z m1099 -52 c-15
-29 -29 -48 -31 -41 -5 13 46 107 54 99 2 -2 -8 -28 -23 -58z m661 57 c-5 -2
-68 -11 -140 -19 -71 -9 -148 -18 -170 -21 -38 -5 -38 -4 -9 5 56 18 365 51
319 35z m399 -16 c-9 -14 -114 -11 -114 4 0 8 17 11 60 9 33 -2 58 -8 54 -13z
m164 9 c-5 -16 -128 -24 -128 -9 0 10 34 16 98 19 23 1 32 -2 30 -10z m842 2
c-8 -5 -19 -10 -25 -10 -5 0 -3 5 5 10 8 5 20 10 25 10 6 0 3 -5 -5 -10z
m1228 3 c-10 -2 -26 -2 -35 0 -10 3 -2 5 17 5 19 0 27 -2 18 -5z m-1473 -12
c8 -14 -13 -24 -33 -16 -14 5 -14 7 -2 15 19 12 27 12 35 1z m-4100 -30 c228
-29 603 -68 715 -76 152 -9 170 -14 170 -38 0 -31 -42 -87 -65 -87 -53 0 -648
68 -824 95 -120 18 -128 18 -115 5 17 -17 533 -89 912 -127 57 -5 62 -8 62
-30 0 -13 -7 -26 -16 -30 -43 -16 -922 101 -947 126 -15 15 -7 15 183 -13 211
-31 287 -39 279 -32 -3 4 -109 22 -235 42 -209 32 -231 37 -251 60 -26 28 -30
49 -9 41 23 -9 312 -56 398 -65 85 -9 99 2 16 12 -29 3 -136 20 -238 37 -163
27 -220 43 -207 56 2 2 85 -10 183 -26 235 -39 411 -63 432 -59 9 2 -35 12
-98 22 -371 56 -532 87 -538 105 -3 9 2 11 14 8 11 -4 91 -15 179 -26z m1330
19 c7 -11 -16 -11 -60 0 -28 7 -28 8 12 9 23 0 45 -3 48 -9z m-1187 -7 c-10
-2 -26 -2 -35 0 -10 3 -2 5 17 5 19 0 27 -2 18 -5z m875 -3 c23 0 27 -4 27
-29 0 -27 -3 -29 -45 -33 -37 -3 -46 0 -56 19 -17 31 -4 57 24 49 12 -3 34 -6
50 -6z m422 0 c28 -7 28 -8 -12 -9 -23 0 -45 4 -48 9 -7 11 16 11 60 0z m585
1 c0 -5 -7 -11 -15 -15 -8 -3 -15 -12 -15 -20 0 -9 -9 -20 -21 -26 -11 -6 -24
-21 -29 -33 -7 -20 -9 -21 -15 -4 -6 14 3 30 36 63 42 43 59 53 59 35z m1800
-1 c0 -5 -4 -10 -10 -10 -5 0 -10 5 -10 10 0 6 5 10 10 10 6 0 10 -4 10 -10z
m815 0 c-20 -9 -437 -57 -735 -86 -91 -8 -178 -19 -195 -24 l-30 -8 28 -1 c29
-1 332 28 617 59 239 26 342 33 310 20 -24 -9 -129 -21 -665 -75 -137 -14
-259 -30 -270 -35 -42 -18 94 -10 560 35 246 24 386 31 265 15 -70 -10 -398
-46 -600 -66 -230 -22 -241 -24 -234 -36 9 -14 133 -6 572 38 195 19 359 33
365 31 15 -5 -555 -66 -763 -82 -96 -7 -179 -9 -184 -5 -5 5 -11 31 -14 58 -5
60 13 82 66 82 55 0 557 49 712 70 152 20 227 24 195 10z m-4418 -6 c-3 -3
-12 -4 -19 -1 -8 3 -5 6 6 6 11 1 17 -2 13 -5z m193 -9 c0 -8 -4 -15 -10 -15
-5 0 -10 7 -10 15 0 8 5 15 10 15 6 0 10 -7 10 -15z m1209 -12 c3 -3 -16 -3
-43 1 -27 3 -57 6 -67 6 -11 0 -19 4 -19 8 0 9 120 -4 129 -15z m331 18 c0 -5
-7 -14 -15 -21 -13 -10 -15 -9 -15 9 0 12 6 21 15 21 8 0 15 -4 15 -9z m3605
0 c-14 -13 -75 -24 -75 -13 0 16 13 22 49 22 21 0 31 -4 26 -9z m-4396 -7 c41
-9 29 -24 -19 -24 -44 0 -70 8 -70 21 0 10 44 12 89 3z m601 -4 c-20 -13 -40
-13 -40 0 0 6 12 10 28 10 21 0 24 -2 12 -10z m654 -24 c-3 -14 -10 -26 -15
-26 -12 0 -11 4 3 35 14 31 21 26 12 -9z m968 15 c-5 -3 -12 -15 -14 -26 -5
-18 -6 -19 -13 -2 -8 20 12 50 27 41 7 -4 7 -9 0 -13z m1693 8 c-54 -16 -265
-59 -292 -59 -57 0 -3 18 102 34 61 9 126 21 145 25 48 12 84 12 45 0z m-3772
-14 c31 -5 37 -10 37 -30 0 -25 -14 -33 -25 -15 -3 6 -23 10 -43 10 -20 0 -43
4 -51 9 -21 14 -6 39 21 35 13 -2 40 -6 61 -9z m1774 -15 c-19 -16 -22 -17
-25 -3 -5 18 16 33 34 26 10 -4 8 -10 -9 -23z m94 17 c-1 -12 -15 -9 -19 4 -3
6 1 10 8 8 6 -3 11 -8 11 -12z m77 6 c-53 -8 -24 -42 37 -44 l40 -1 -48 -10
c-53 -10 -77 0 -77 32 0 24 9 30 44 29 30 -2 30 -2 4 -6z m74 -15 c-7 -7 -12
-8 -12 -2 0 14 12 26 19 19 2 -3 -1 -11 -7 -17z m162 0 c-3 -13 -7 -24 -8 -25
-1 -1 -22 -4 -46 -7 l-45 -6 38 11 c26 8 37 17 37 30 0 11 7 19 16 19 11 0 14
-6 8 -22z m-469 -36 c-6 -16 -7 -16 -16 1 -8 13 -7 23 3 34 12 15 13 15 16 -1
2 -9 1 -25 -3 -34z m-3356 4 c69 -19 135 -37 146 -39 17 -4 17 -5 -3 -6 -27
-1 -258 56 -282 69 -29 18 11 11 139 -24z m1794 17 c13 -8 -15 -23 -43 -23
-33 0 -55 15 -45 30 7 11 66 7 88 -7z m3862 -8 c-35 -29 -150 -87 -216 -108
-136 -45 -439 -95 -794 -131 -414 -42 -637 -58 -649 -46 -6 6 -6 13 0 19 5 4
104 14 219 20 116 7 280 21 365 31 85 11 223 26 307 35 182 19 403 56 533 91
86 22 234 87 246 106 3 4 8 8 12 8 4 -1 -6 -12 -23 -25z m-2485 5 c0 -5 -21
-9 -47 -9 -47 2 -47 2 -13 9 52 11 60 11 60 0z m2680 0 c0 -5 -17 -10 -37 -10
-28 0 -34 3 -23 10 20 13 60 13 60 0z m-3885 -9 c33 -7 24 -9 -52 -10 -56 -1
-93 3 -93 9 0 12 89 12 145 1z m-510 -11 c3 -5 1 -10 -4 -10 -6 0 -11 5 -11
10 0 6 2 10 4 10 3 0 8 -4 11 -10z m645 -15 c-7 -8 -19 -15 -26 -15 -8 0 -14
7 -14 15 0 10 10 15 26 15 22 0 25 -2 14 -15z m1383 8 c-13 -2 -35 -2 -50 0
-16 2 -5 4 22 4 28 0 40 -2 28 -4z m1470 0 c-7 -2 -19 -2 -25 0 -7 3 -2 5 12
5 14 0 19 -2 13 -5z m344 1 c-3 -3 -12 -4 -19 -1 -8 3 -5 6 6 6 11 1 17 -2 13
-5z m-5272 -30 c52 -15 65 -22 39 -18 -51 7 -167 42 -139 42 11 0 56 -10 100
-24z m1298 9 c34 -5 37 -8 37 -39 0 -23 -6 -37 -20 -44 -11 -6 -20 -17 -20
-25 0 -16 -28 -20 -45 -7 -37 26 -42 141 -6 127 9 -4 33 -9 54 -12z m1954 11
c-3 -3 -12 -4 -19 -1 -8 3 -5 6 6 6 11 1 17 -2 13 -5z m698 -30 c0 -28 -2 -29
-52 -32 -29 -2 -53 -7 -53 -13 0 -6 20 -7 51 -3 42 6 51 4 47 -7 -3 -10 -24
-15 -66 -17 l-62 -3 0 50 0 50 58 4 c77 4 77 4 77 -29z m1710 16 c3 -5 -15
-15 -40 -21 -62 -16 -48 -24 38 -22 51 2 65 0 47 -6 -14 -5 -41 -9 -61 -10
-54 -1 -99 -12 -99 -24 0 -6 23 -8 60 -4 33 3 60 2 60 -3 0 -4 -33 -10 -72
-14 -93 -8 -113 -26 -32 -27 76 -1 36 -17 -48 -18 -32 -1 -58 -5 -58 -11 0 -5
23 -10 51 -10 72 0 52 -16 -31 -24 -82 -8 -94 -26 -17 -27 69 -1 33 -17 -40
-18 -29 -1 -53 -5 -53 -11 0 -5 18 -10 40 -10 22 0 40 -4 40 -10 0 -5 -15 -10
-32 -10 -50 0 -108 -12 -108 -21 0 -5 21 -9 48 -10 38 -1 42 -2 22 -9 -14 -4
-42 -8 -62 -9 -56 -2 -57 -21 -1 -22 36 0 43 -3 28 -9 -11 -5 -38 -9 -60 -9
-65 -2 -80 -21 -17 -21 33 0 51 -4 47 -10 -3 -5 -33 -10 -66 -10 -33 0 -59 -4
-59 -10 0 -5 23 -10 50 -10 77 0 59 -17 -25 -25 -90 -9 -100 -25 -15 -25 33 0
60 -4 60 -10 0 -6 -28 -10 -64 -10 -35 0 -71 -3 -80 -6 -34 -13 -13 -23 52
-27 49 -2 38 -4 -41 -5 -79 -1 -106 1 -101 9 5 9 -54 10 -232 5 -131 -5 -237
-5 -234 -2 3 3 98 10 210 16 233 12 310 24 310 47 0 12 -7 14 -32 10 -93 -16
-709 -48 -878 -45 l-105 1 145 8 c80 4 249 12 375 18 335 17 555 45 555 72 0
6 -8 8 -17 5 -45 -12 -137 -26 -233 -35 -138 -13 -396 -25 -390 -18 3 3 79 13
170 22 297 29 422 46 487 66 76 24 85 43 11 23 -57 -15 -287 -47 -458 -64
-783 -76 -2605 -68 -3510 16 -174 16 -480 60 -489 70 -3 4 10 4 29 1 46 -8
339 -44 465 -56 492 -50 1948 -85 2585 -62 419 15 731 36 980 67 200 25 430
67 460 85 22 13 0 11 -75 -6 -57 -13 -266 -39 -620 -75 -94 -9 -425 -22 -390
-15 11 3 109 11 219 20 360 28 962 124 982 157 4 6 -1 8 -12 4 -29 -9 -257
-44 -364 -56 -217 -24 -639 -60 -685 -58 -46 1 -47 2 -10 5 717 65 999 105
1135 164 66 28 64 41 -4 23 -244 -64 -769 -135 -1081 -147 -60 -3 -92 -3 -70
-1 22 3 128 13 235 24 619 62 955 131 1098 225 40 25 67 31 77 15z m115 1
c-23 -13 -90 -21 -90 -11 0 12 20 18 65 19 26 0 35 -2 25 -8z m-5888 -63 c17
-18 37 -28 55 -28 15 0 35 -5 43 -11 11 -7 4 -8 -25 -4 -79 12 -85 15 -105 55
-22 42 -27 68 -7 35 7 -10 24 -32 39 -47z m1608 45 c0 -18 -47 -27 -88 -17
-59 15 -48 29 23 29 45 0 65 -4 65 -12z m2131 -21 c-7 -13 -26 -23 -50 -27
-55 -9 -81 1 -81 30 0 22 4 24 63 27 71 3 83 -2 68 -30z m-1984 12 c5 -16 -40
-25 -87 -18 -25 4 -40 12 -40 21 0 11 14 13 62 11 34 -2 63 -8 65 -14z m109 6
c10 0 14 -13 14 -45 0 -55 -27 -88 -68 -83 -23 3 -28 9 -30 37 -2 19 -1 50 3
69 6 32 8 34 37 28 17 -3 37 -6 44 -6z m1719 -27 c-4 -21 -11 -53 -17 -70 -9
-30 -13 -33 -49 -33 -66 0 -95 47 -69 114 9 24 14 26 75 26 l66 0 -6 -37z
m318 20 c-9 -25 -23 -33 -61 -33 -40 0 -72 15 -72 35 0 12 15 15 70 15 62 0
69 -2 63 -17z m-1290 -14 c208 0 475 3 594 7 l215 7 -4 -24 c-3 -24 -5 -24
-143 -29 l-140 -6 110 -3 c61 -2 124 -6 140 -10 69 -15 -9 -26 -207 -29 -142
-3 -206 -7 -201 -15 4 -7 70 -8 205 -4 138 4 198 3 198 -4 0 -8 -210 -10 -714
-8 -685 4 -715 5 -735 23 -21 19 -30 84 -13 100 4 5 77 5 162 2 85 -4 325 -7
533 -7z m-1085 -16 c15 -3 31 -11 35 -17 6 -8 10 -7 14 2 2 6 9 12 14 12 15 0
10 -24 -12 -49 -17 -21 -24 -23 -62 -15 -40 9 -42 11 -45 48 -3 33 -1 38 13
32 9 -3 29 -9 43 -13z m200 -13 c17 0 32 -4 32 -10 0 -5 -7 -10 -15 -10 -9 0
-21 -11 -27 -25 -17 -38 -62 -34 -82 7 -23 46 -21 51 22 44 20 -3 52 -6 70 -6z
m2128 -8 c43 3 45 2 42 -22 -2 -20 -10 -26 -43 -31 -33 -6 -43 -3 -66 19 -32
29 -29 58 3 41 11 -6 40 -9 64 -7z m-2534 -37 c3 -17 12 -21 57 -23 49 -3 53
-5 47 -25 -3 -12 -6 -28 -6 -34 0 -14 -39 -17 -89 -7 -31 6 -31 7 -29 65 3 55
12 67 20 24z m2418 16 c0 -30 -28 -51 -66 -51 -24 0 -37 5 -41 18 -4 9 -14 22
-22 27 -15 10 2 13 112 23 11 1 17 -5 17 -17z m300 -21 c-36 -12 -80 -12 -80
0 0 6 24 10 53 9 41 -1 47 -3 27 -9z m-199 -40 c57 0 60 -1 57 -22 -2 -19 -13
-25 -63 -34 l-60 -12 63 -1 c34 -1 62 -5 62 -10 0 -12 -20 -18 -87 -26 l-53
-7 0 74 c1 54 3 69 11 56 8 -14 23 -18 70 -18z m-2253 5 c2 -2 1 -17 -3 -34
-7 -31 -7 -31 -70 -31 -70 0 -80 7 -70 48 6 28 6 28 73 24 37 -2 69 -6 70 -7z
m-858 -45 c118 -22 229 -44 245 -49 99 -29 -181 10 -365 50 -52 12 -106 28
-120 36 l-25 14 25 -5 c14 -3 122 -24 240 -46z m3330 31 c0 -21 -26 -31 -82
-31 -62 0 -43 -19 22 -22 79 -4 68 -26 -15 -30 -66 -3 -73 4 -60 68 l6 34 64
0 c57 0 65 -2 65 -19z m-2322 -24 c6 -46 -9 -55 -72 -43 -66 13 -69 16 -60 50
6 26 9 27 68 24 59 -3 61 -4 64 -31z m150 -13 c4 -38 -7 -43 -76 -36 -51 4
-52 5 -52 37 0 17 2 34 4 36 3 2 31 2 63 -1 56 -5 58 -6 61 -36z m1672 6 c0
-19 -25 -29 -80 -31 -28 -1 -24 -3 24 -13 51 -9 57 -13 43 -24 -9 -8 -35 -12
-69 -10 -50 3 -53 5 -56 32 -2 15 -1 38 2 50 5 19 11 21 71 18 55 -3 65 -7 65
-22z m178 11 c7 -20 -17 -31 -70 -31 -27 0 -48 -4 -48 -10 0 -5 26 -10 57 -10
50 0 55 -2 43 -14 -13 -12 -84 -22 -127 -17 -13 1 -18 57 -8 83 8 19 146 18
153 -1z m-865 -1 c440 0 527 -2 527 -14 0 -21 -47 -26 -261 -26 -126 0 -199
-4 -199 -10 0 -6 83 -10 230 -10 194 0 230 -2 230 -15 0 -12 -49 -14 -337 -15
-334 0 -940 14 -1080 26 l-73 6 0 35 0 36 218 -6 c119 -4 454 -7 745 -7z
m1425 -87 c-10 -2 -28 -2 -40 0 -13 2 -5 4 17 4 22 1 32 -1 23 -4z m-3660 -90
c-10 -2 -28 -2 -40 0 -13 2 -5 4 17 4 22 1 32 -1 23 -4z m3377 -23 c-60 -4
-150 -7 -200 -7 l-90 1 100 6 c55 3 145 6 200 6 l100 1 -110 -7z m-3180 -20
c25 -9 -185 0 -240 10 -22 4 19 5 90 2 72 -3 139 -8 150 -12z m-367 -7 c-10
-2 -26 -2 -35 0 -10 3 -2 5 17 5 19 0 27 -2 18 -5z m205 -20 c-13 -2 -33 -2
-45 0 -13 2 -3 4 22 4 25 0 35 -2 23 -4z m170 -10 c-13 -2 -35 -2 -50 0 -16 2
-5 4 22 4 28 0 40 -2 28 -4z m670 0 c-13 -2 -35 -2 -50 0 -16 2 -5 4 22 4 28
0 40 -2 28 -4z m677 -23 c151 -5 563 -14 915 -20 779 -13 839 -16 440 -18
-448 -3 -1606 27 -1880 48 -124 10 14 7 525 -10z m2318 -67 c-27 -2 -69 -2
-95 0 -27 2 -5 3 47 3 52 0 74 -1 48 -3z"/>
<path d="M4258 6062 c-81 -136 -90 -152 -84 -152 12 0 142 217 134 225 -2 2
-24 -31 -50 -73z"/>
<path d="M4084 6019 c-30 -61 -53 -113 -51 -115 5 -5 89 153 106 199 22 58 -2
21 -55 -84z"/>
<path d="M4018 5995 c-54 -122 -62 -162 -13 -65 29 57 77 182 72 186 -2 2 -29
-52 -59 -121z"/>
<path d="M4530 6055 c-23 -37 -40 -69 -37 -71 2 -3 23 25 47 61 24 36 40 68
38 71 -3 3 -24 -25 -48 -61z"/>
<path d="M4434 6038 c-49 -83 -49 -82 -36 -74 15 9 85 126 79 132 -3 3 -22
-23 -43 -58z"/>
<path d="M4768 6062 c-33 -35 -63 -82 -52 -82 11 1 88 100 82 105 -2 3 -16 -8
-30 -23z"/>
<path d="M4605 6040 c-15 -22 -26 -43 -23 -45 2 -3 19 15 37 40 18 25 28 45
23 45 -5 0 -22 -18 -37 -40z"/>
<path d="M4671 6029 c-18 -28 -30 -53 -27 -56 5 -6 66 85 66 99 0 14 -5 9 -39
-43z"/>
<path d="M4826 6040 c-23 -28 -33 -50 -22 -50 8 0 58 71 53 76 -2 3 -16 -9
-31 -26z"/>
<path d="M4906 6025 c-3 -8 -1 -15 3 -15 5 0 11 7 15 15 3 8 1 15 -3 15 -5 0
-11 -7 -15 -15z"/>
<path d="M3255 6048 c4 -40 10 -118 14 -173 l8 -100 2 96 c1 121 -9 249 -21
249 -5 0 -6 -32 -3 -72z"/>
<path d="M3334 5835 c0 -104 2 -146 3 -92 2 54 2 139 0 190 -1 51 -3 7 -3 -98z"/>
<path d="M3480 5716 c0 -7 -3 -35 -6 -62 -5 -33 -3 -46 4 -39 12 13 22 115 11
115 -5 0 -9 -6 -9 -14z"/>
<path d="M3466 5193 c-3 -87 -8 -187 -11 -223 -3 -44 -2 -60 5 -49 10 17 27
429 18 429 -3 0 -9 -71 -12 -157z"/>
<path d="M3414 5130 c0 -102 2 -143 3 -92 2 50 2 134 0 185 -1 50 -3 9 -3 -93z"/>
<path d="M3442 4780 c0 -14 2 -19 5 -12 2 6 2 18 0 25 -3 6 -5 1 -5 -13z"/>
<path d="M4091 5206 c-22 -53 -116 -218 -195 -338 -58 -91 -33 -67 32 30 101
149 214 362 194 362 -5 0 -18 -25 -31 -54z"/>
<path d="M3910 5142 c-24 -53 -72 -155 -107 -227 -35 -71 -56 -121 -48 -110
38 47 213 420 202 431 -2 2 -23 -40 -47 -94z"/>
<path d="M3967 5122 c-30 -60 -66 -127 -79 -148 -41 -65 -110 -194 -104 -194
10 0 177 289 212 367 53 115 33 98 -29 -25z"/>
<path d="M4402 5079 c-51 -78 -91 -143 -88 -146 2 -3 45 57 95 132 79 119 99
155 89 155 -2 0 -45 -64 -96 -141z"/>
<path d="M4254 5163 c-43 -76 -104 -171 -166 -259 -66 -92 -77 -120 -20 -47
85 107 229 339 218 350 -2 3 -17 -17 -32 -44z"/>
<path d="M4617 5083 c-94 -151 -92 -147 -79 -139 21 13 172 256 159 256 -3 0
-39 -53 -80 -117z"/>
<path d="M4280 5048 c-127 -189 -133 -198 -126 -198 7 0 147 197 192 272 68
111 28 67 -66 -74z"/>
<path d="M4144 5148 c-9 -18 -56 -96 -104 -173 -106 -172 -102 -165 -97 -165
3 0 43 60 90 133 81 126 143 237 132 237 -2 0 -12 -15 -21 -32z"/>
<path d="M4747 5128 c-40 -64 -65 -106 -101 -173 -21 -39 -23 -45 -6 -26 18
21 105 164 139 229 22 41 2 22 -32 -30z"/>
<path d="M4812 5054 c-76 -132 -92 -169 -42 -94 43 63 123 210 118 216 -3 2
-37 -52 -76 -122z"/>
<path d="M4485 5053 c-43 -65 -70 -111 -60 -103 29 24 156 220 142 220 -2 0
-38 -53 -82 -117z"/>
<path d="M4967 5138 c-50 -82 -96 -157 -111 -180 -10 -16 -14 -28 -10 -28 10
0 92 125 123 188 23 44 21 58 -2 20z"/>
<path d="M5053 5098 c-21 -27 -84 -141 -80 -145 3 -2 26 30 51 73 26 42 45 78
43 80 -2 3 -9 -1 -14 -8z"/>
<path d="M5100 5020 c-18 -28 -30 -53 -28 -56 6 -5 68 84 68 98 0 16 -8 7 -40
-42z"/>
<path d="M5190 5009 c-12 -16 -20 -32 -17 -35 6 -6 47 45 47 57 0 16 -8 10
-30 -22z"/>
<path d="M5035 5729 c22 -4 128 -7 235 -7 136 1 177 3 135 8 -85 11 -421 10
-370 -1z"/>
<path d="M5564 5719 c-16 -3 42 -9 129 -13 141 -7 180 -5 166 8 -7 7 -263 11
-295 5z"/>
<path d="M1392 5288 c-43 -131 -76 -255 -55 -208 25 58 120 360 113 360 -5 0
-31 -69 -58 -152z"/>
<path d="M1386 5095 c-91 -265 -92 -266 -78 -245 19 28 163 444 160 459 -2 9
-39 -87 -82 -214z"/>
<path d="M1469 5144 c-55 -144 -159 -426 -158 -432 1 -14 42 85 110 267 38
101 67 186 64 189 -2 3 -9 -8 -16 -24z"/>
<path d="M1831 4948 c-35 -82 -71 -189 -62 -183 12 7 93 216 87 223 -3 3 -14
-15 -25 -40z"/>
<path d="M1832 4809 c-59 -126 -112 -262 -112 -286 0 -10 22 36 49 102 27 66
65 156 85 199 20 44 34 81 31 84 -3 3 -27 -42 -53 -99z"/>
<path d="M1796 4569 c-58 -117 -104 -215 -102 -217 5 -5 125 222 176 333 23
48 39 89 37 92 -3 2 -52 -91 -111 -208z"/>
<path d="M1742 4701 c-6 -17 -7 -31 -3 -31 8 0 22 52 16 58 -1 2 -7 -11 -13
-27z"/>
<path d="M1641 3692 c-154 -235 -344 -552 -331 -552 4 0 32 39 60 88 64 106
275 448 297 480 8 12 12 22 7 22 -5 0 -20 -17 -33 -38z"/>
<path d="M1746 3583 c-6 -14 -5 -15 5 -6 7 7 10 15 7 18 -3 3 -9 -2 -12 -12z"/>
<path d="M1028 3468 c-9 -24 -30 -76 -47 -116 -44 -105 -213 -610 -209 -623 2
-6 48 118 101 275 54 157 118 334 142 392 49 117 48 114 37 114 -4 0 -15 -19
-24 -42z"/>
<path d="M1529 3239 c-74 -115 -158 -248 -188 -295 -29 -47 -51 -87 -48 -90 3
-3 11 4 17 17 7 12 63 99 124 193 138 210 244 386 233 386 -2 0 -64 -95 -138
-211z"/>
<path d="M1801 3357 c-13 -21 -12 -21 5 -5 10 10 16 20 13 22 -3 3 -11 -5 -18
-17z"/>
<path d="M1022 3203 c-28 -70 -76 -200 -107 -288 -31 -88 -89 -253 -130 -366
-80 -222 -108 -320 -50 -174 34 86 74 196 207 570 33 94 78 216 100 273 22 57
38 106 35 108 -3 3 -28 -52 -55 -123z"/>
<path d="M1702 3223 c-51 -77 -60 -95 -25 -55 29 34 77 112 69 112 -3 0 -23
-26 -44 -57z"/>
<path d="M1592 3048 c-64 -96 -235 -398 -228 -405 2 -2 24 31 49 74 25 43 83
144 131 226 85 146 103 186 48 105z"/>
<path d="M1012 2887 c-40 -91 -98 -232 -128 -314 -75 -198 -234 -653 -234
-667 1 -19 26 46 136 352 116 326 212 574 268 696 20 44 35 84 33 89 -2 6 -36
-64 -75 -156z"/>
<path d="M1623 2872 c-22 -37 -73 -128 -113 -202 -40 -74 -112 -201 -160 -281
-100 -167 -113 -189 -106 -189 15 0 166 256 316 535 24 44 58 106 78 138 19
32 32 60 30 62 -2 2 -22 -26 -45 -63z"/>
<path d="M1757 2833 c-146 -231 -477 -776 -474 -779 4 -5 64 86 228 351 100
163 251 411 269 444 18 35 2 23 -23 -16z"/>
<path d="M1009 2664 c-86 -200 -120 -284 -222 -554 -63 -168 -131 -343 -151
-389 -20 -46 -35 -86 -33 -88 9 -8 120 257 217 517 57 151 130 337 162 414 32
76 57 141 54 144 -3 2 -15 -17 -27 -44z"/>
<path d="M1732 2530 c-46 -71 -142 -211 -213 -312 -143 -199 -156 -221 -109
-168 68 76 419 595 409 604 -2 3 -41 -54 -87 -124z"/>
<path d="M1935 2588 c-24 -38 -248 -351 -351 -493 l-36 -50 37 40 c70 76 392
532 382 541 -2 3 -17 -15 -32 -38z"/>
<path d="M1795 2188 c-216 -266 -277 -347 -194 -258 75 81 423 519 417 525 -2
2 -102 -118 -223 -267z"/>
<path d="M2021 2249 c-30 -38 -128 -146 -217 -239 -90 -93 -164 -172 -164
-177 0 -18 278 271 361 375 49 61 86 112 81 112 -4 0 -31 -32 -61 -71z"/>
<path d="M691 2264 c0 -11 3 -14 6 -6 3 7 2 16 -1 19 -3 4 -6 -2 -5 -13z"/>
<path d="M2014 2073 c-54 -60 -139 -151 -189 -204 -49 -53 -8 -13 93 88 158
161 214 223 199 223 -3 0 -49 -48 -103 -107z"/>
<path d="M2060 1961 c-41 -42 -118 -117 -170 -165 -52 -48 -80 -78 -62 -66 44
29 319 296 312 303 -3 3 -39 -29 -80 -72z"/>
<path d="M2054 1812 c-50 -42 -106 -90 -125 -105 -32 -27 -32 -28 -4 -11 26
15 94 68 198 156 18 14 29 29 27 32 -3 3 -46 -30 -96 -72z"/>
<path d="M2045 1694 c-27 -25 -36 -37 -20 -25 47 32 91 70 80 70 -5 1 -32 -20
-60 -45z"/>
<path d="M6284 4186 c-3 -19 -1 -48 4 -63 9 -24 11 -20 11 35 1 69 -5 80 -15
28z"/>
<path d="M6377 4128 c-14 -78 -19 -173 -9 -163 8 9 25 195 17 195 -1 0 -5 -15
-8 -32z"/>
<path d="M6437 3886 c-10 -65 -16 -120 -14 -122 7 -7 39 181 35 211 -1 17 -11
-23 -21 -89z"/>
<path d="M6506 3821 c-3 -38 -9 -78 -12 -88 -4 -14 -4 -15 4 -3 5 8 13 35 16
60 4 25 9 57 12 73 3 15 1 27 -4 27 -5 0 -12 -31 -16 -69z"/>
<path d="M6566 3763 c-15 -49 -56 -237 -52 -240 4 -4 37 115 56 201 10 47 8
76 -4 39z"/>
<path d="M6620 3677 c0 -13 -13 -77 -30 -142 -16 -66 -27 -121 -25 -123 6 -6
10 7 31 88 27 109 42 200 33 200 -5 0 -9 -10 -9 -23z"/>
<path d="M6676 3609 c-2 -8 -14 -84 -26 -169 -13 -85 -25 -162 -28 -170 -3
-10 -2 -12 6 -5 11 11 66 345 57 353 -2 3 -6 -1 -9 -9z"/>
<path d="M6726 3398 c-10 -46 -33 -141 -52 -212 -37 -134 -40 -188 -5 -69 43
145 90 363 79 363 -3 0 -13 -37 -22 -82z"/>
<path d="M6785 3303 c-10 -38 -40 -132 -67 -211 -28 -79 -48 -145 -45 -148 2
-3 27 59 54 138 51 144 88 276 80 284 -2 2 -12 -26 -22 -63z"/>
<path d="M6866 3269 c-2 -8 -14 -48 -26 -89 -12 -41 -49 -144 -82 -229 -32
-84 -57 -155 -55 -158 3 -2 32 65 65 149 61 155 116 327 107 336 -2 3 -7 -1
-9 -9z"/>
<path d="M6921 3079 c-6 -18 -11 -37 -10 -43 0 -6 7 7 15 28 8 22 12 41 10 43
-2 2 -9 -10 -15 -28z"/>
<path d="M6976 2889 c-55 -120 -67 -149 -60 -149 9 0 105 211 101 223 -1 5
-20 -28 -41 -74z"/>
<path d="M7067 2784 c-27 -53 -46 -98 -44 -101 3 -2 28 41 56 97 29 55 48 100
44 100 -5 0 -30 -43 -56 -96z"/>
<path d="M6802 2785 c-17 -36 -30 -65 -27 -65 7 0 67 121 63 126 -2 2 -18 -26
-36 -61z"/>
<path d="M7164 2717 c-11 -18 -29 -44 -38 -59 -10 -16 -16 -28 -12 -28 8 0 80
109 75 114 -2 3 -14 -10 -25 -27z"/>
<path d="M5875 3618 c-3 -24 -9 -52 -11 -63 -4 -16 -3 -17 4 -5 11 17 26 110
18 110 -2 0 -7 -19 -11 -42z"/>
<path d="M5935 3469 c-18 -98 -14 -135 5 -47 15 74 24 138 17 138 -3 0 -12
-41 -22 -91z"/>
<path d="M6025 3435 c-4 -27 -15 -88 -25 -135 -10 -47 -17 -87 -15 -88 10 -11
60 240 52 261 -2 7 -8 -10 -12 -38z"/>
<path d="M6145 3178 c-6 -26 -87 -283 -112 -357 -4 -11 -3 -13 5 -6 11 11 107
301 117 358 9 46 -1 49 -10 5z"/>
<path d="M6277 2803 c-3 -4 -10 -28 -17 -53 -7 -25 -48 -135 -92 -245 -98
-244 -94 -233 -80 -220 11 10 156 371 187 463 15 47 16 78 2 55z"/>
<path d="M6347 2713 c-3 -5 -30 -69 -60 -143 -30 -74 -78 -184 -106 -243 -28
-59 -47 -105 -42 -102 24 14 234 495 216 495 -2 0 -6 -3 -8 -7z"/>
<path d="M6518 2368 c-49 -85 -91 -168 -87 -173 3 -2 31 43 62 102 32 58 56
107 54 110 -3 2 -16 -15 -29 -39z"/>
<path d="M6637 2244 c-9 -26 -16 -49 -14 -51 7 -6 39 75 35 87 -2 6 -11 -10
-21 -36z"/>
<path d="M2895 3860 c4 -47 29 -307 56 -578 27 -272 49 -503 49 -515 0 -14 3
-18 10 -11 6 6 -6 166 -36 454 -25 245 -50 507 -57 582 -7 76 -17 141 -21 145
-4 4 -5 -30 -1 -77z"/>
<path d="M2900 3354 c2 -100 48 -795 53 -801 12 -11 3 163 -33 686 -10 137
-21 201 -20 115z"/>
<path d="M3850 3853 c-13 -32 -72 -156 -132 -277 -60 -120 -107 -220 -104
-223 3 -3 52 89 109 203 103 207 162 342 154 350 -2 3 -15 -21 -27 -53z"/>
<path d="M3955 3853 c-27 -72 -94 -204 -175 -342 -39 -67 -70 -125 -68 -127 7
-6 124 188 177 292 48 94 95 213 87 221 -2 2 -11 -18 -21 -44z"/>
<path d="M4380 3787 c-18 -34 -65 -109 -103 -165 -38 -57 -67 -106 -64 -108 6
-6 150 212 182 274 37 75 26 74 -15 -1z"/>
<path d="M5061 3823 c-7 -16 -44 -86 -83 -156 -38 -71 -68 -130 -65 -133 2 -3
33 48 68 113 88 163 103 192 97 198 -3 3 -10 -7 -17 -22z"/>
<path d="M4032 3777 c-35 -69 -104 -191 -142 -251 -13 -22 -19 -36 -12 -32 23
14 200 331 190 341 -2 2 -18 -24 -36 -58z"/>
<path d="M4244 3758 c-20 -40 -57 -104 -82 -143 -24 -38 -37 -63 -28 -56 33
27 169 271 151 271 -2 0 -21 -33 -41 -72z"/>
<path d="M4461 3763 c-28 -58 -98 -174 -166 -278 -11 -16 -14 -26 -7 -21 36
22 218 333 210 357 -2 6 -18 -20 -37 -58z"/>
<path d="M4124 3758 c-16 -34 -62 -114 -102 -178 -74 -118 -57 -109 25 14 48
72 119 214 111 221 -2 3 -18 -23 -34 -57z"/>
<path d="M4528 3652 c-54 -81 -84 -131 -67 -112 55 63 181 260 167 260 -2 0
-47 -66 -100 -148z"/>
<path d="M4917 3713 c-24 -43 -50 -89 -56 -103 l-12 -25 20 25 c22 28 105 180
98 180 -3 0 -25 -35 -50 -77z"/>
<path d="M5086 3697 c-27 -51 -44 -87 -38 -82 17 17 93 156 90 165 -2 5 -25
-32 -52 -83z"/>
<path d="M4686 3721 c-15 -28 -54 -88 -89 -133 -73 -96 -92 -128 -47 -78 79
87 180 243 166 257 -2 3 -16 -18 -30 -46z"/>
<path d="M4811 3744 c-7 -16 -42 -75 -78 -132 -36 -57 -63 -105 -61 -108 10
-9 161 241 156 257 -2 6 -10 -2 -17 -17z"/>
<path d="M5137 3619 c-20 -33 -31 -59 -25 -57 13 5 73 107 66 114 -3 2 -21
-23 -41 -57z"/>
<path d="M4815 3539 c-4 -6 -5 -12 -2 -15 2 -3 7 2 10 11 7 17 1 20 -8 4z"/>
<path d="M4036 3428 l-18 -33 21 25 c18 22 26 40 18 40 -1 0 -11 -15 -21 -32z"/>
<path d="M3669 3323 c-13 -16 -12 -17 4 -4 16 13 21 21 13 21 -2 0 -10 -8 -17
-17z"/>
<path d="M3456 4521 c-18 -77 -21 -127 -7 -101 11 20 34 160 28 166 -3 3 -12
-26 -21 -65z"/>
<path d="M5611 2634 c-7 -25 -10 -48 -8 -51 3 -2 10 17 16 43 7 25 10 48 8 51
-3 2 -10 -17 -16 -43z"/>
<path d="M5666 2594 c-4 -14 -5 -28 -3 -31 3 -2 8 8 11 23 4 14 5 28 3 31 -3
2 -8 -8 -11 -23z"/>
<path d="M5582 2533 c-15 -48 -8 -55 8 -8 7 20 10 38 8 41 -3 2 -10 -13 -16
-33z"/>
<path d="M5617 2428 c-20 -67 -35 -123 -33 -125 5 -5 62 167 71 215 13 65 -2
29 -38 -90z"/>
<path d="M5710 2466 c-5 -15 -10 -29 -10 -32 0 -2 -34 -95 -75 -205 -77 -207
-81 -220 -66 -203 19 19 175 454 166 462 -2 3 -9 -7 -15 -22z"/>
<path d="M5772 2373 c-5 -10 -51 -110 -102 -223 -51 -113 -96 -213 -101 -222
-6 -10 -6 -18 -2 -18 5 0 39 69 77 153 38 83 87 190 108 236 21 46 36 86 34
88 -2 3 -9 -4 -14 -14z"/>
<path d="M5781 2183 c-23 -54 -71 -151 -107 -217 -36 -65 -63 -121 -60 -123 3
-4 77 121 119 202 39 77 105 235 98 235 -5 0 -27 -44 -50 -97z"/>
<path d="M3655 2314 c-46 -205 -170 -552 -275 -765 -22 -46 -33 -75 -25 -64
66 81 280 635 305 787 10 63 6 93 -5 42z"/>
<path d="M3745 2253 c-52 -169 -138 -380 -251 -613 -63 -129 -107 -226 -98
-215 39 50 227 446 290 613 48 127 98 291 91 298 -2 3 -17 -35 -32 -83z"/>
<path d="M3805 2093 c-50 -144 -124 -328 -174 -437 -49 -106 -47 -128 2 -30
67 134 226 558 214 571 -2 2 -21 -45 -42 -104z"/>
<path d="M4066 2155 c-21 -82 -56 -177 -132 -354 -46 -106 -84 -196 -84 -200
1 -11 60 108 111 225 61 139 122 319 116 342 -2 11 -6 7 -11 -13z"/>
<path d="M4182 2103 c-13 -42 -56 -151 -96 -242 -69 -157 -95 -222 -83 -211
11 10 166 368 187 429 11 35 20 72 18 82 -2 10 -13 -16 -26 -58z"/>
<path d="M3955 2158 c-61 -176 -195 -503 -222 -545 -9 -13 -13 -26 -11 -29 17
-17 193 392 237 551 9 32 6 51 -4 23z"/>
<path d="M4830 2089 c-35 -89 -88 -198 -141 -289 -17 -30 -24 -48 -16 -40 44
41 204 374 195 402 -3 7 -19 -26 -38 -73z"/>
<path d="M4324 2114 c-17 -47 -59 -145 -114 -264 -69 -149 -86 -189 -71 -175
13 13 147 302 178 384 13 35 21 66 19 69 -3 3 -9 -4 -12 -14z"/>
<path d="M4696 2053 c-16 -37 -53 -116 -83 -175 -29 -60 -51 -108 -49 -108 16
0 170 323 164 341 -2 6 -16 -21 -32 -58z"/>
<path d="M4911 1994 c-34 -70 -77 -153 -97 -186 -20 -32 -34 -61 -31 -64 6 -7
64 89 116 194 43 86 84 182 77 182 -2 0 -31 -57 -65 -126z"/>
<path d="M4441 2056 c-11 -30 -54 -123 -96 -206 -42 -84 -74 -154 -72 -156 7
-7 156 290 178 353 25 73 17 81 -10 9z"/>
<path d="M4488 1885 c-47 -102 -82 -183 -78 -180 10 6 123 235 150 304 41 106
13 56 -72 -124z"/>
<path d="M5065 2039 c-9 -17 -15 -33 -13 -35 3 -2 12 12 21 31 21 43 13 47 -8
4z"/>
<path d="M5097 1905 c-94 -157 -113 -199 -43 -94 44 65 141 239 134 239 -2 0
-43 -65 -91 -145z"/>
<path d="M5185 1884 c-36 -64 -64 -118 -61 -121 5 -5 68 100 110 185 45 89 21
58 -49 -64z"/>
<path d="M5363 1978 c-22 -29 -115 -190 -111 -193 2 -2 32 41 67 96 35 55 61
102 59 105 -3 2 -10 -1 -15 -8z"/>
<path d="M5000 1923 c-18 -32 -40 -69 -49 -83 -9 -14 -11 -21 -4 -17 17 11 97
146 91 153 -3 3 -20 -21 -38 -53z"/>
<path d="M5376 1869 c-53 -81 -56 -105 -4 -32 40 55 61 93 56 99 -3 2 -26 -28
-52 -67z"/>
<path d="M3301 2734 c0 -11 3 -14 6 -6 3 7 2 16 -1 19 -3 4 -6 -2 -5 -13z"/>
<path d="M3280 2656 c0 -4 -29 -112 -65 -241 -64 -229 -78 -289 -49 -210 28
75 126 446 120 452 -3 4 -6 3 -6 -1z"/>
<path d="M5900 1950 c-6 -11 -8 -20 -6 -20 3 0 10 9 16 20 6 11 8 20 6 20 -3
0 -10 -9 -16 -20z"/>
<path d="M6065 1860 c-25 -40 -44 -74 -42 -76 2 -2 25 28 51 67 26 39 45 73
42 76 -2 3 -26 -27 -51 -67z"/>
<path d="M4892 1501 c4 -13 18 -16 19 -4 0 4 -5 9 -11 12 -7 2 -11 -2 -8 -8z"/>
<path d="M4205 940 c-18 -8 -17 -9 8 -9 16 -1 26 3 22 9 -3 6 -7 10 -8 9 -1 0
-11 -4 -22 -9z"/>
<path d="M4518 952 c12 -8 72 -4 72 4 0 2 -19 4 -42 4 -26 0 -38 -4 -30 -8z"/>
<path d="M4370 940 c0 -6 11 -8 28 -4 39 10 40 14 4 14 -18 0 -32 -5 -32 -10z"/>
<path d="M6290 586 c-52 -7 -104 -17 -114 -23 -19 -10 -19 -11 2 -17 12 -4
120 -9 239 -12 120 -3 313 -8 428 -12 119 -5 227 -4 250 1 40 9 248 2 351 -12
29 -4 54 -4 54 0 0 8 -33 14 -165 27 l-80 8 125 8 c233 16 82 26 -290 20 -413
-7 -360 -7 -485 0 -55 2 -124 9 -154 15 -29 6 -56 10 -60 10 -3 -1 -49 -7
-101 -13z m118 -23 c-10 -2 -28 -2 -40 0 -13 2 -5 4 17 4 22 1 32 -1 23 -4z"/>
<path d="M500 576 c0 -2 17 -12 38 -23 45 -22 241 -32 295 -14 26 9 50 8 106
-4 68 -14 217 -23 227 -13 2 3 -35 8 -83 12 -47 3 -112 13 -142 21 -31 7 -77
17 -103 20 -40 6 -48 5 -48 -9 0 -13 -12 -16 -68 -16 -37 0 -94 7 -125 15 -56
15 -97 19 -97 11z"/>
<path d="M7558 553 c12 -2 32 -2 45 0 12 2 2 4 -23 4 -25 0 -35 -2 -22 -4z"/>
<path d="M1016 501 c15 -16 119 -40 197 -46 40 -4 110 -1 157 5 164 22 211 23
289 6 42 -8 102 -18 134 -21 31 -4 57 -11 57 -16 0 -12 -12 -11 -44 1 -14 5
-28 5 -31 0 -5 -8 25 -20 90 -35 47 -11 336 -15 375 -5 27 7 54 3 120 -15 l85
-24 -61 0 c-47 -1 -67 4 -87 19 -30 23 -46 11 -18 -14 34 -31 120 -41 234 -27
57 7 120 9 139 6 29 -6 40 -3 57 14 16 16 25 18 48 11 36 -12 184 -30 248 -30
28 0 60 -6 71 -14 18 -14 18 -15 -10 -22 -32 -8 -242 1 -268 11 -10 4 -18 3
-18 -3 0 -12 73 -35 210 -65 83 -19 126 -22 347 -22 234 0 253 2 273 20 20 19
22 18 98 -5 93 -29 251 -40 440 -32 149 6 190 22 57 22 -48 0 -84 4 -81 9 12
19 -36 25 -219 28 -104 2 -197 4 -205 4 -8 0 -43 10 -78 21 -71 23 -163 21
-307 -5 -44 -8 -104 -13 -132 -10 -34 4 -53 2 -53 -5 0 -6 24 -15 53 -20 51
-9 51 -10 12 -11 -43 -1 -214 24 -223 33 -3 3 17 6 44 6 27 1 66 7 86 14 21 7
48 11 62 9 13 -3 65 4 114 16 98 23 199 27 283 11 30 -6 126 -12 214 -14 88
-2 191 -10 229 -16 42 -8 93 -10 130 -5 34 4 125 10 204 14 86 4 147 12 154
19 9 9 -18 10 -115 5 -93 -4 -127 -3 -127 5 0 8 29 12 90 12 62 0 100 5 121
15 27 14 31 14 45 0 29 -29 132 -39 241 -22 43 6 52 5 47 -6 -3 -10 15 -21 63
-37 63 -21 87 -23 313 -26 135 -2 286 -8 335 -15 94 -12 260 -5 271 12 3 5 16
9 30 9 13 0 24 5 24 10 0 21 -34 23 -84 4 -60 -22 -248 -26 -268 -6 -9 9 3 12
54 12 37 0 70 5 73 10 4 7 -42 10 -133 9 -129 -2 -142 0 -188 23 -65 33 -124
44 -124 25 0 -19 -44 -27 -150 -27 -84 0 -150 13 -150 30 0 12 28 20 71 20 22
0 39 5 39 11 0 8 -21 10 -70 5 -38 -3 -100 -9 -137 -12 -61 -5 -221 12 -291
32 -16 5 -22 3 -20 -7 2 -11 -14 -15 -65 -17 -52 -2 -68 -6 -64 -16 16 -40
-328 -33 -436 9 -20 8 -56 15 -80 15 -23 1 -68 7 -99 14 -53 13 -58 13 -70 -5
-15 -23 -52 -25 -181 -14 -77 7 -87 10 -82 26 5 16 -2 17 -112 12 -107 -5
-116 -4 -98 10 31 24 14 29 -62 17 -49 -8 -94 -8 -153 -1 -46 6 -86 9 -88 6
-10 -10 53 -25 131 -31 45 -3 98 -12 117 -19 19 -7 85 -20 145 -30 170 -26
169 -26 90 -42 -83 -17 -132 -12 -280 27 -162 42 -168 42 -339 20 -221 -28
-291 -26 -388 12 -46 17 -32 28 15 12 56 -20 182 -30 191 -15 4 6 35 11 73 11
86 0 74 10 -24 21 -209 23 -205 23 -214 8 -7 -11 -14 -10 -41 6 -31 19 -52 20
-323 21 -246 1 -299 3 -350 18 -66 20 -150 21 -235 4 -87 -17 -275 -14 -348 5
-74 20 -79 20 -66 8z m1235 -71 c-32 -27 -160 -31 -230 -7 l-35 12 45 6 c24 3
89 7 144 7 l100 1 -24 -19z m1534 -72 c81 -36 76 -39 -70 -32 -142 7 -221 23
-114 24 36 0 61 5 68 14 12 15 77 12 116 -6z m1170 -51 c11 -3 0 -3 -25 -1
-24 2 -48 8 -54 14 -6 6 3 6 25 0 19 -5 43 -11 54 -13z m240 3 c6 -10 -69 -34
-88 -27 -7 2 3 7 20 11 18 4 35 12 38 17 8 12 22 12 30 -1z m-1640 -40 c-29
-12 -128 -12 -120 0 3 6 36 10 73 9 47 0 61 -3 47 -9z m555 -50 c0 -5 -4 -10
-10 -10 -5 0 -10 5 -10 10 0 6 5 10 10 10 6 0 10 -4 10 -10z"/>
<path d="M4995 432 c14 -14 106 -32 165 -32 28 0 76 -9 107 -20 127 -43 404
-70 513 -49 36 7 101 13 145 13 44 1 94 5 112 10 21 5 62 1 115 -10 101 -20
216 -20 323 0 44 9 119 16 167 16 48 0 90 5 93 10 9 15 -146 12 -250 -5 -112
-19 -245 -21 -310 -4 -27 7 -112 13 -188 13 -105 1 -140 4 -146 15 -7 11 -20
11 -79 -3 -39 -9 -114 -16 -166 -16 -52 0 -97 -4 -100 -9 -5 -8 -167 13 -196
26 -8 4 17 10 55 13 42 4 76 3 86 -3 22 -14 57 -1 41 15 -9 9 -74 13 -220 13
-114 1 -223 5 -242 9 -24 6 -32 5 -25 -2z m825 -71 c0 -5 -16 -11 -35 -13 -36
-4 -36 6 0 15 32 8 35 7 35 -2z"/>
<path d="M1216 361 c20 -19 90 -33 260 -51 99 -10 215 -28 259 -39 44 -11 161
-34 259 -51 154 -26 206 -30 360 -30 151 0 194 4 268 22 87 21 89 21 185 3 54
-9 142 -28 196 -41 89 -22 105 -23 185 -14 62 8 102 8 135 0 26 -5 71 -7 100
-4 34 4 82 0 137 -12 101 -21 274 -24 346 -6 36 10 106 12 248 8 191 -5 198
-4 203 14 3 11 7 20 8 20 2 0 46 -11 97 -25 106 -28 239 -33 390 -14 80 11 90
10 115 -7 26 -17 50 -19 282 -19 161 0 256 4 258 10 2 6 -87 10 -253 10 -252
0 -256 0 -274 22 -18 22 -18 22 -115 8 -154 -23 -275 -20 -391 11 -153 41
-199 43 -163 7 15 -15 -11 -17 -206 -14 -110 2 -173 -2 -234 -14 -93 -19 -187
-16 -313 10 -85 18 -274 26 -380 15 -43 -4 -94 -4 -115 1 -21 4 -107 22 -192
40 l-154 32 -91 -24 c-79 -20 -115 -23 -271 -23 -158 0 -203 4 -370 32 -104
18 -191 35 -194 38 -2 2 36 4 85 4 49 0 105 5 125 10 26 7 46 7 65 0 16 -6 84
-22 151 -36 142 -28 278 -32 309 -9 13 10 44 14 96 15 42 0 80 4 83 10 3 6 15
10 26 10 10 0 19 7 19 15 0 19 -9 19 -77 -1 -47 -14 -95 -16 -292 -12 l-236 5
-96 33 -96 34 -59 -19 c-46 -15 -85 -19 -174 -18 -128 2 -397 28 -450 43 -44
13 -67 13 -54 1z"/>
<path d="M5925 320 c3 -5 13 -10 21 -10 8 0 14 -4 14 -9 0 -5 -21 -11 -47 -15
-53 -7 -82 -21 -69 -33 12 -12 201 -10 217 3 17 13 279 9 349 -5 24 -5 67 -6
94 -1 27 4 115 5 195 2 119 -4 148 -2 158 10 10 12 -5 14 -105 13 -64 0 -135
1 -157 3 -22 2 -74 0 -116 -4 -58 -5 -82 -3 -104 8 -22 12 -37 13 -64 5 -47
-13 -182 -2 -295 23 -105 23 -99 23 -91 10z m105 -40 c0 -5 -7 -10 -16 -10 -8
0 -12 5 -9 10 3 6 10 10 16 10 5 0 9 -4 9 -10z"/>
<path d="M6435 322 c6 -6 98 -12 223 -14 128 -3 209 -1 204 4 -5 5 -106 12
-223 15 -145 4 -211 2 -204 -5z"/>
<path d="M4632 281 c-34 -3 -63 -10 -65 -16 -5 -24 323 -41 330 -17 3 8 -7 12
-29 12 -18 1 -51 7 -73 15 -41 15 -56 16 -163 6z"/>
<path d="M1254 252 c4 -6 35 -19 69 -29 l62 -17 -40 -8 c-22 -4 -76 -7 -120
-7 -70 -1 -85 2 -117 24 -46 31 -49 31 -103 0 -72 -43 -172 -58 -290 -45 -55
6 -133 19 -172 29 -40 11 -73 15 -73 11 0 -12 145 -48 246 -61 112 -14 203 -1
292 41 l60 28 36 -26 c36 -25 42 -26 189 -27 127 0 166 -4 236 -24 76 -21 95
-22 205 -16 66 5 199 8 294 7 99 0 172 3 172 9 0 8 -133 15 -206 11 -81 -6
-245 17 -297 41 -41 18 -58 22 -72 14 -34 -18 -266 13 -359 49 -13 5 -17 4
-12 -4z m331 -68 c54 -1 114 -10 150 -22 l60 -19 -55 -7 c-71 -10 -223 15
-276 43 l-39 22 35 -7 c19 -4 76 -8 125 -10z"/>
<path d="M5813 126 c8 -24 91 -37 197 -32 166 9 220 17 220 32 0 17 -18 17
-100 -1 -83 -18 -201 -19 -268 -1 -36 9 -52 10 -49 2z"/>
<path d="M6421 74 c-24 -17 -67 -17 -250 2 -45 5 -62 4 -57 -4 3 -6 42 -14 86
-18 44 -3 82 -10 85 -14 6 -10 -127 -20 -272 -20 -160 0 -350 16 -435 37 -58
14 -75 15 -137 3 -49 -9 -100 -11 -173 -5 -148 11 -182 11 -288 -4 -92 -13
-277 -11 -425 5 -107 12 -52 -6 71 -22 130 -18 356 -14 438 7 33 8 62 8 109 0
82 -14 216 -14 286 0 46 10 65 9 111 -4 140 -41 666 -49 771 -13 24 9 54 16
65 16 12 0 27 6 33 14 10 11 21 11 74 -1 69 -15 350 -29 391 -19 59 15 17 21
-141 22 -120 0 -189 5 -241 17 -40 9 -74 17 -75 17 -2 0 -13 -7 -26 -16z"/>
</g>
</svg>
